<?xml version="1.0" encoding="utf-8"?>
<svg xmlns="http://www.w3.org/2000/svg" viewBox="71.2841 214.3255 949.8182 471.3491" width="949.818px" height="471.349px"><defs><style>
#eI8vgbxsmZS5_to {animation: eI8vgbxsmZS5_to__to 2000ms linear infinite normal forwards}@keyframes eI8vgbxsmZS5_to__to { 0% {transform: translate(144px,117px)} 10% {transform: translate(144px,114px)} 20% {transform: translate(144px,117px)} 30% {transform: translate(144px,114px)} 40% {transform: translate(144px,117px)} 50% {transform: translate(144px,114px)} 60% {transform: translate(144px,117px)} 70% {transform: translate(144px,114px)} 80% {transform: translate(144px,117px)} 90% {transform: translate(144px,114px)} 99.5% {transform: translate(144px,116.997px)} 100% {transform: translate(144px,116.997px)}} #eI8vgbxsmZS36_to {animation: eI8vgbxsmZS36_to__to 2000ms linear infinite normal forwards}@keyframes eI8vgbxsmZS36_to__to { 0% {transform: translate(364.322px,54px)} 45% {transform: translate(364.322px,54px);animation-timing-function: cubic-bezier(0.5,0,0,1)} 95% {transform: translate(12.611px,54px)} 100% {transform: translate(12.611px,54px)}} #eI8vgbxsmZS36 {animation: eI8vgbxsmZS36_c_o 2000ms linear infinite normal forwards}@keyframes eI8vgbxsmZS36_c_o { 0% {opacity: 1} 95% {opacity: 0} 100% {opacity: 0}} #eI8vgbxsmZS42_to {animation: eI8vgbxsmZS42_to__to 2000ms linear infinite normal forwards}@keyframes eI8vgbxsmZS42_to__to { 0% {transform: translate(0px,0px)} 45% {transform: translate(0px,0px)} 95% {transform: translate(0px,9px)} 100% {transform: translate(0px,9px)}} #eI8vgbxsmZS43_to {animation: eI8vgbxsmZS43_to__to 2000ms linear infinite normal forwards}@keyframes eI8vgbxsmZS43_to__to { 0% {transform: translate(91px,0px)} 32.5% {transform: translate(91px,0px);animation-timing-function: cubic-bezier(0.5,0,0,1)} 57.5% {transform: translate(0px,0px)} 100% {transform: translate(0px,0px)}} #eI8vgbxsmZS54_to {animation: eI8vgbxsmZS54_to__to 2000ms linear infinite normal forwards}@keyframes eI8vgbxsmZS54_to__to { 0% {transform: translate(0px,0px)} 45% {transform: translate(0px,0px)} 95% {transform: translate(0px,9px)} 100% {transform: translate(0px,9px)}} #eI8vgbxsmZS68 {animation: eI8vgbxsmZS68_c_o 2000ms linear infinite normal forwards}@keyframes eI8vgbxsmZS68_c_o { 0% {opacity: 0} 45% {opacity: 0;animation-timing-function: step-end} 95% {opacity: 1} 100% {opacity: 1}} #eI8vgbxsmZS77_to {animation: eI8vgbxsmZS77_to__to 2000ms linear infinite normal forwards}@keyframes eI8vgbxsmZS77_to__to { 0% {transform: translate(431px,323.5px)} 53% {transform: translate(431px,323.5px);animation-timing-function: cubic-bezier(0.5,0,0,1)} 93% {transform: translate(314px,323.5px)} 100% {transform: translate(314px,323.5px)}} #eI8vgbxsmZS77 {animation: eI8vgbxsmZS77_c_o 2000ms linear infinite normal forwards}@keyframes eI8vgbxsmZS77_c_o { 0% {opacity: 1} 93% {opacity: 0} 100% {opacity: 0}} #eI8vgbxsmZS83_to {animation: eI8vgbxsmZS83_to__to 2000ms linear infinite normal forwards}@keyframes eI8vgbxsmZS83_to__to { 0% {transform: translate(0px,0px)} 53% {transform: translate(0px,0px);animation-timing-function: cubic-bezier(0.5,0,0,1)} 93% {transform: translate(-91px,0px)} 100% {transform: translate(-91px,0px)}} #eI8vgbxsmZS84_to {animation: eI8vgbxsmZS84_to__to 2000ms linear infinite normal forwards}@keyframes eI8vgbxsmZS84_to__to { 0% {transform: translate(91px,0px)} 40.5% {transform: translate(91px,0px);animation-timing-function: cubic-bezier(0.5,0,0,1)} 65.5% {transform: translate(0px,0px)} 100% {transform: translate(0px,0px)}} #eI8vgbxsmZS95_to {animation: eI8vgbxsmZS95_to__to 2000ms linear infinite normal forwards}@keyframes eI8vgbxsmZS95_to__to { 0% {transform: translate(0px,0px)} 53% {transform: translate(0px,0px);animation-timing-function: cubic-bezier(0.5,0,0,1)} 93% {transform: translate(-91px,0px)} 100% {transform: translate(-91px,0px)}} #eI8vgbxsmZS109 {animation: eI8vgbxsmZS109_c_o 2000ms linear infinite normal forwards}@keyframes eI8vgbxsmZS109_c_o { 0% {opacity: 0} 53% {opacity: 0;animation-timing-function: step-end} 93% {opacity: 1} 100% {opacity: 1}} #eI8vgbxsmZS118_to {animation: eI8vgbxsmZS118_to__to 2000ms linear infinite normal forwards}@keyframes eI8vgbxsmZS118_to__to { 0% {transform: translate(166.224px,323.5px)} 53% {transform: translate(166.224px,323.5px);animation-timing-function: cubic-bezier(0.5,0,0,1)} 93% {transform: translate(49.224px,323.5px)} 100% {transform: translate(49.224px,323.5px)}} #eI8vgbxsmZS118 {animation: eI8vgbxsmZS118_c_o 2000ms linear infinite normal forwards}@keyframes eI8vgbxsmZS118_c_o { 0% {opacity: 1} 93% {opacity: 0} 100% {opacity: 0}} #eI8vgbxsmZS124_to {animation: eI8vgbxsmZS124_to__to 2000ms linear infinite normal forwards}@keyframes eI8vgbxsmZS124_to__to { 0% {transform: translate(0px,0px)} 53% {transform: translate(0px,0px);animation-timing-function: cubic-bezier(0.5,0,0,1)} 93% {transform: translate(-91px,0px)} 100% {transform: translate(-91px,0px)}} #eI8vgbxsmZS125_to {animation: eI8vgbxsmZS125_to__to 2000ms linear infinite normal forwards}@keyframes eI8vgbxsmZS125_to__to { 0% {transform: translate(91px,0px)} 40.5% {transform: translate(91px,0px);animation-timing-function: cubic-bezier(0.5,0,0,1)} 65.5% {transform: translate(0px,0px)} 100% {transform: translate(0px,0px)}} #eI8vgbxsmZS136_to {animation: eI8vgbxsmZS136_to__to 2000ms linear infinite normal forwards}@keyframes eI8vgbxsmZS136_to__to { 0% {transform: translate(0px,0px)} 53% {transform: translate(0px,0px);animation-timing-function: cubic-bezier(0.5,0,0,1)} 93% {transform: translate(-91px,0px)} 100% {transform: translate(-91px,0px)}} #eI8vgbxsmZS150 {animation: eI8vgbxsmZS150_c_o 2000ms linear infinite normal forwards}@keyframes eI8vgbxsmZS150_c_o { 0% {opacity: 0} 53% {opacity: 0;animation-timing-function: step-end} 93% {opacity: 1} 100% {opacity: 1}} #eI8vgbxsmZS159_to {animation: eI8vgbxsmZS159_to__to 2000ms linear infinite normal forwards}@keyframes eI8vgbxsmZS159_to__to { 0% {transform: translate(538px,156.5px)} 65% {transform: translate(538px,156.5px);animation-timing-function: cubic-bezier(0.5,0,0,1)} 91.5% {transform: translate(421px,156.5px)} 100% {transform: translate(421px,156.5px)}} #eI8vgbxsmZS159 {animation: eI8vgbxsmZS159_c_o 2000ms linear infinite normal forwards}@keyframes eI8vgbxsmZS159_c_o { 0% {opacity: 1} 91.5% {opacity: 0} 100% {opacity: 0}} #eI8vgbxsmZS165_to {animation: eI8vgbxsmZS165_to__to 2000ms linear infinite normal forwards}@keyframes eI8vgbxsmZS165_to__to { 0% {transform: translate(0px,0px)} 65% {transform: translate(0px,0px)} 91.5% {transform: translate(0px,9px)} 100% {transform: translate(0px,9px)}} #eI8vgbxsmZS166_to {animation: eI8vgbxsmZS166_to__to 2000ms linear infinite normal forwards}@keyframes eI8vgbxsmZS166_to__to { 0% {transform: translate(91px,0px)} 52.5% {transform: translate(91px,0px);animation-timing-function: cubic-bezier(0.5,0,0,1)} 77.5% {transform: translate(0px,0px)} 100% {transform: translate(0px,0px)}} #eI8vgbxsmZS177_to {animation: eI8vgbxsmZS177_to__to 2000ms linear infinite normal forwards}@keyframes eI8vgbxsmZS177_to__to { 0% {transform: translate(0px,0px)} 65% {transform: translate(0px,0px)} 91.5% {transform: translate(0px,9px)} 100% {transform: translate(0px,9px)}} #eI8vgbxsmZS191 {animation: eI8vgbxsmZS191_c_o 2000ms linear infinite normal forwards}@keyframes eI8vgbxsmZS191_c_o { 0% {opacity: 0} 65% {opacity: 0;animation-timing-function: step-end} 91.5% {opacity: 1} 100% {opacity: 1}} #eI8vgbxsmZS200_to {animation: eI8vgbxsmZS200_to__to 2000ms linear infinite normal forwards}@keyframes eI8vgbxsmZS200_to__to { 0% {transform: translate(543.438px,14px)} 49.5% {transform: translate(543.438px,14px);animation-timing-function: cubic-bezier(0.5,0,0,1)} 99.5% {transform: translate(154.162px,14px)} 100% {transform: translate(154.162px,14px)}} #eI8vgbxsmZS200 {animation: eI8vgbxsmZS200_c_o 2000ms linear infinite normal forwards}@keyframes eI8vgbxsmZS200_c_o { 0% {opacity: 1} 53% {opacity: 1} 99.5% {opacity: 0} 100% {opacity: 0}} #eI8vgbxsmZS206_to {animation: eI8vgbxsmZS206_to__to 2000ms linear infinite normal forwards}@keyframes eI8vgbxsmZS206_to__to { 0% {transform: translate(0px,0px)} 49.5% {transform: translate(0px,0px)} 99.5% {transform: translate(0px,9px)} 100% {transform: translate(0px,9px)}} #eI8vgbxsmZS207_to {animation: eI8vgbxsmZS207_to__to 2000ms linear infinite normal forwards}@keyframes eI8vgbxsmZS207_to__to { 0% {transform: translate(91px,0px)} 37% {transform: translate(91px,0px);animation-timing-function: cubic-bezier(0.5,0,0,1)} 62% {transform: translate(0px,0px)} 100% {transform: translate(0px,0px)}} #eI8vgbxsmZS218_to {animation: eI8vgbxsmZS218_to__to 2000ms linear infinite normal forwards}@keyframes eI8vgbxsmZS218_to__to { 0% {transform: translate(0px,0px)} 49.5% {transform: translate(0px,0px)} 99.5% {transform: translate(0px,9px)} 100% {transform: translate(0px,9px)}} #eI8vgbxsmZS232 {animation: eI8vgbxsmZS232_c_o 2000ms linear infinite normal forwards}@keyframes eI8vgbxsmZS232_c_o { 0% {opacity: 0} 49.5% {opacity: 0;animation-timing-function: step-end} 99.5% {opacity: 1} 100% {opacity: 1}} #eI8vgbxsmZS241_to {animation: eI8vgbxsmZS241_to__to 2000ms linear infinite normal forwards}@keyframes eI8vgbxsmZS241_to__to { 0% {transform: translate(401.5px,323.5px)} 14% {transform: translate(401.5px,323.5px);animation-timing-function: cubic-bezier(0.5,0,0,1)} 54% {transform: translate(303px,323.5px)} 100% {transform: translate(303px,323.5px)}} #eI8vgbxsmZS241 {animation: eI8vgbxsmZS241_c_o 2000ms linear infinite normal forwards}@keyframes eI8vgbxsmZS241_c_o { 0% {opacity: 1} 53% {opacity: 1} 54% {opacity: 0} 100% {opacity: 0}} #eI8vgbxsmZS247_to {animation: eI8vgbxsmZS247_to__to 2000ms linear infinite normal forwards}@keyframes eI8vgbxsmZS247_to__to { 0% {transform: translate(0px,0px)} 14% {transform: translate(0px,0px);animation-timing-function: cubic-bezier(0.5,0,0,1)} 54% {transform: translate(-91px,0px)} 100% {transform: translate(-91px,0px)}} #eI8vgbxsmZS250_to {animation: eI8vgbxsmZS250_to__to 2000ms linear infinite normal forwards}@keyframes eI8vgbxsmZS250_to__to { 0% {transform: translate(91px,0px);animation-timing-function: cubic-bezier(0.5,0,0,1)} 25% {transform: translate(0px,0px)} 100% {transform: translate(0px,0px)}} #eI8vgbxsmZS258_to {animation: eI8vgbxsmZS258_to__to 2000ms linear infinite normal forwards}@keyframes eI8vgbxsmZS258_to__to { 0% {transform: translate(0px,0px)} 14% {transform: translate(0px,0px);animation-timing-function: cubic-bezier(0.5,0,0,1)} 54% {transform: translate(-91px,0px)} 100% {transform: translate(-91px,0px)}} #eI8vgbxsmZS272 {animation: eI8vgbxsmZS272_c_o 2000ms linear infinite normal forwards}@keyframes eI8vgbxsmZS272_c_o { 0% {opacity: 0} 14% {opacity: 0;animation-timing-function: step-end} 54% {opacity: 1} 100% {opacity: 1}} #eI8vgbxsmZS281_to {animation: eI8vgbxsmZS281_to__to 2000ms linear infinite normal forwards}@keyframes eI8vgbxsmZS281_to__to { 0% {transform: translate(525.225px,108px)} 25.5% {transform: translate(525.225px,108px);animation-timing-function: cubic-bezier(0.5,0,0,1)} 51.5% {transform: translate(392.225px,108px)} 100% {transform: translate(392.225px,108px)}} #eI8vgbxsmZS281 {animation: eI8vgbxsmZS281_c_o 2000ms linear infinite normal forwards}@keyframes eI8vgbxsmZS281_c_o { 0% {opacity: 1} 51.5% {opacity: 0} 100% {opacity: 0}} #eI8vgbxsmZS287_to {animation: eI8vgbxsmZS287_to__to 2000ms linear infinite normal forwards}@keyframes eI8vgbxsmZS287_to__to { 0% {transform: translate(0px,0px)} 25.5% {transform: translate(0px,0px)} 51.5% {transform: translate(0px,9px)} 100% {transform: translate(0px,9px)}} #eI8vgbxsmZS288_to {animation: eI8vgbxsmZS288_to__to 2000ms linear infinite normal forwards}@keyframes eI8vgbxsmZS288_to__to { 0% {transform: translate(91px,0px)} 10% {transform: translate(91px,0px);animation-timing-function: cubic-bezier(0.5,0,0,1)} 35% {transform: translate(0px,0px)} 100% {transform: translate(0px,0px)}} #eI8vgbxsmZS299_to {animation: eI8vgbxsmZS299_to__to 2000ms linear infinite normal forwards}@keyframes eI8vgbxsmZS299_to__to { 0% {transform: translate(0px,0px)} 25.5% {transform: translate(0px,0px)} 51.5% {transform: translate(0px,9px)} 100% {transform: translate(0px,9px)}} #eI8vgbxsmZS313 {animation: eI8vgbxsmZS313_c_o 2000ms linear infinite normal forwards}@keyframes eI8vgbxsmZS313_c_o { 0% {opacity: 0} 25.5% {opacity: 0;animation-timing-function: step-end} 51.5% {opacity: 1} 100% {opacity: 1}} #eI8vgbxsmZS322_to {animation: eI8vgbxsmZS322_to__to 2000ms linear infinite normal forwards}@keyframes eI8vgbxsmZS322_to__to { 0% {transform: translate(146.5px,323.5px)} 12.5% {transform: translate(146.5px,323.5px);animation-timing-function: cubic-bezier(0.5,0,0,1)} 52.5% {transform: translate(29.5px,323.5px)} 100% {transform: translate(29.5px,323.5px)}} #eI8vgbxsmZS322 {animation: eI8vgbxsmZS322_c_o 2000ms linear infinite normal forwards}@keyframes eI8vgbxsmZS322_c_o { 0% {opacity: 1} 52.5% {opacity: 0} 100% {opacity: 0}} #eI8vgbxsmZS328_to {animation: eI8vgbxsmZS328_to__to 2000ms linear infinite normal forwards}@keyframes eI8vgbxsmZS328_to__to { 0% {transform: translate(0px,0px)} 12.5% {transform: translate(0px,0px);animation-timing-function: cubic-bezier(0.5,0,0,1)} 52.5% {transform: translate(-91px,0px)} 100% {transform: translate(-91px,0px)}} #eI8vgbxsmZS331_to {animation: eI8vgbxsmZS331_to__to 2000ms linear infinite normal forwards}@keyframes eI8vgbxsmZS331_to__to { 0% {transform: translate(91px,0px);animation-timing-function: cubic-bezier(0.5,0,0,1)} 25% {transform: translate(0px,0px)} 100% {transform: translate(0px,0px)}} #eI8vgbxsmZS339_to {animation: eI8vgbxsmZS339_to__to 2000ms linear infinite normal forwards}@keyframes eI8vgbxsmZS339_to__to { 0% {transform: translate(0px,0px)} 12.5% {transform: translate(0px,0px);animation-timing-function: cubic-bezier(0.5,0,0,1)} 52.5% {transform: translate(-91px,0px)} 100% {transform: translate(-91px,0px)}} #eI8vgbxsmZS353 {animation: eI8vgbxsmZS353_c_o 2000ms linear infinite normal forwards}@keyframes eI8vgbxsmZS353_c_o { 0% {opacity: 0} 12.5% {opacity: 0;animation-timing-function: step-end} 52.5% {opacity: 1} 100% {opacity: 1}} #eI8vgbxsmZS368_tr {animation: eI8vgbxsmZS368_tr__tr 2000ms linear infinite normal forwards}@keyframes eI8vgbxsmZS368_tr__tr { 0% {transform: translate(135.33781px,207.03926px) rotate(720deg);animation-timing-function: cubic-bezier(0.415,0.08,0.115,0.955)} 100% {transform: translate(135.33781px,207.03926px) rotate(532.987013deg)}} #eI8vgbxsmZS369_tr {animation: eI8vgbxsmZS369_tr__tr 2000ms linear infinite normal forwards}@keyframes eI8vgbxsmZS369_tr__tr { 0% {transform: translate(11.12px,29.9px) rotate(-720deg);animation-timing-function: cubic-bezier(0.415,0.08,0.115,0.955)} 100% {transform: translate(11.12px,29.9px) rotate(-532.987013deg)}}
</style></defs><g transform="matrix(1.3093030452728271, 0, 0, 1.3093030452728271, 71.28411208516526, 214.3254579056122)" id="object-0"><g opacity="0"><rect width="640" height="360" rx="0" ry="0" fill="#fff" stroke-width="0"/></g><g id="eI8vgbxsmZS5_to" transform="translate(144,117)"><g transform="translate(0,0)" clip-path="url(#eI8vgbxsmZS20)"><g transform="matrix(1.3333 0 0 1.3333 0 0)"><g><path d="M60.43,128.68c0,0,142.63,0,142.63,0-.02-.4-.03-.8-.03-1.21c0-1.42.13-2.81.36-4.17c0,0-143.29,0-143.29,0c.23,1.36.36,2.75.36,4.17c0,.41-.01.81-.03,1.21c0,0,0,0,0,0Z" fill="#0d263d" fill-rule="evenodd" stroke-width="0"/><path d="M5.45,5.75c0,0,0,117.55,0,117.55s6.94,0,6.94,0c-.23,1.36-.35,2.75-.35,4.17c0,.41.01.81.03,1.21c0,0-7.98,0-7.98,0-2.24,0-4.02-1.82-4.02-4.03c0,0,0-120.25,0-120.25c0-2.04,1.55-4.03,3.96-4.03c14.25-.01,144.03-.13,148.9,0c5.34.14,10.35.99,14.71,2.59c4.29,1.57,8.71,4,12.32,6.88.6.48,1.77,1.66,3.17,3.14c1.47,1.56,3.38,3.63,5.59,6.04c4.42,4.83,10.04,11.07,15.72,17.36c1.11,1.24,2.23,2.48,3.34,3.71c0,0,0,0,0,0c10.23,11.36,19.78,21.95,22.01,24.12c1.09,1.07,3.28,2.72,6.14,4.7c2.8,1.94,6.11,4.09,9.32,6.13c2.74,1.75,5.4,3.4,7.61,4.78c0,0,0,.01,0,.01.38.23.75.46,1.09.67c1.2.75,2.22,1.4,3,1.9.7.45,1.38.88,1.72,1.16c2.72,2.23,3.75,5.61,4.24,8.5.25,1.49.39,3,.49,4.35.03.41.05.79.08,1.16c0,0,0,.01,0,.01.06.9.12,1.71.2,2.44c0,0,.01.14.01.14s0,22.07,0,22.07c0,3.57-2.9,6.45-6.46,6.45c0,0-5.81,0-5.81,0c.02-.4.03-.8.03-1.21c0-1.42-.13-2.81-.36-4.17c0,0,6.14,0,6.14,0c.6,0,1.08-.48,1.08-1.07c0,0,0-21.78,0-21.78-.08-.81-.14-1.73-.2-2.62-.02-.35-.05-.69-.08-1.03-.09-1.31-.21-2.61-.42-3.84-.43-2.55-1.19-4.28-2.35-5.23c0,0,.01,0,.01,0s-.02-.01-.02-.01c-.03-.02-.11-.08-.29-.2-.23-.15-.53-.35-.91-.59-.75-.48-1.76-1.11-2.96-1.86-.34-.21-.7-.45-1.07-.68c0,0,0,0,0,0s-.01,0-.01,0c-2.21-1.38-4.89-3.06-7.65-4.82-3.23-2.06-6.6-4.24-9.49-6.24-2.84-1.96-5.37-3.84-6.83-5.26-2.37-2.31-12.01-13.01-22.12-24.23-1.16-1.29-2.32-2.57-3.48-3.86-5.68-6.3-11.29-12.51-15.69-17.32-2.2-2.41-4.1-4.46-5.54-5.98-.72-.76-1.32-1.39-1.78-1.85-.23-.23-.42-.42-.57-.56-.07-.07-.13-.13-.18-.17-.02-.02-.05-.04-.06-.05-.02-.01-.02-.01-.02-.01-3.12-2.5-7.03-4.64-10.81-6.03-3.71-1.36-8.12-2.13-13-2.26-4.65-.12-127.49-.02-147.34,0c0,0,0,0,0,0Z" fill="#0d263d" fill-rule="evenodd" stroke-width="0"/></g><g transform="matrix(.75 0 0 0.75 0 0)"><path d="M303.89,88.19c-6.82-6.64-61.7-68.69-66.18-72.27-4.48-3.59-10.04-6.64-15.42-8.61s-11.66-3.05-18.48-3.23c-6.44-.17-179.38-.02-198.43,0-.99,0-1.7.8-1.7,1.79c0,0,0,160.33,0,160.33c0,.99.79,1.79,1.78,1.79c0,0,337.52,0,337.52,0c2.77,0,5.02-2.23,5.02-5.01c0,0,0-29.24,0-29.24-.64-5.88-.2-15.31-5.38-19.55-1.97-1.61-31.92-19.36-38.73-26c0,0,0,0,0,0Z" paint-order="stroke fill markers" fill="none" fill-rule="evenodd" stroke="#0d263d" stroke-width="7.17"/></g><g><path d="M60.46,127.47c0,13.37-24.21,3.03-24.21,3.03s-24.21,10.34-24.21-3.03s10.84-24.2,24.21-24.2s24.21,10.83,24.21,24.2c0,0,0,0,0,0Z" fill="#fff" stroke-width="0"/></g><g><path d="M251.67,127.71c0,13.37-24.21,3.02-24.21,3.02s-24.21,10.35-24.21-3.02s10.84-24.21,24.21-24.21s24.21,10.84,24.21,24.21c0,0,0,0,0,0Z" fill="#fff" stroke-width="0"/></g><g transform="matrix(.75 0 0 0.75 0 0)"><path d="M283.62,91.42c8.43,0-37.3-47.7-40.71-48.78-3.41-1.07-25.28,0-25.28,0s1.79,48.78,1.79,48.78s64.2,0,64.2,0Z" fill="#0d263d" stroke="#0d263d" stroke-width="0.36"/></g></g><g><rect width="352" height="180" rx="0" ry="0" fill="rgba(0,0,0,0)" fill-opacity="0" stroke-width="0"/></g><clipPath id="eI8vgbxsmZS20"><rect width="352" height="180" rx="0" ry="0" fill="none" stroke-width="0"/></clipPath></g></g><g transform="translate(164 258.5)" clip-path="url(#eI8vgbxsmZS27)"><g transform="matrix(1.3333 0 0 1.3333 0 0)"><path d="M41.96,21.59c0,11.52-9.34,20.85-20.85,20.85-11.52,0-20.84-9.33-20.84-20.85s9.32-20.85,20.84-20.85c11.51,0,20.85,9.33,20.85,20.85" fill="#0d263d" stroke-width="0"/></g><g><rect width="56" height="57" rx="0" ry="0" fill="rgba(0,0,0,0)" fill-opacity="0" stroke-width="0"/></g><clipPath id="eI8vgbxsmZS27"><rect width="56" height="57" rx="0" ry="0" fill="none" stroke-width="0"/></clipPath></g><g transform="translate(419 258.5)" clip-path="url(#eI8vgbxsmZS34)"><g transform="matrix(1.3333 0 0 1.3333 0 0)"><path d="M41.96,21.59c0,11.52-9.34,20.85-20.85,20.85-11.52,0-20.84-9.33-20.84-20.85s9.32-20.85,20.84-20.85c11.51,0,20.85,9.33,20.85,20.85" fill="#0d263d" stroke-width="0"/></g><g><rect width="56" height="57" rx="0" ry="0" fill="rgba(0,0,0,0)" fill-opacity="0" stroke-width="0"/></g><clipPath id="eI8vgbxsmZS34"><rect width="56" height="57" rx="0" ry="0" fill="none" stroke-width="0"/></clipPath></g><g id="eI8vgbxsmZS36_to" transform="translate(364.322,54)"><g id="eI8vgbxsmZS36" transform="translate(0,0)" clip-path="url(#eI8vgbxsmZS75)"><g mask="url(#eI8vgbxsmZS64)"><g clip-path="url(#eI8vgbxsmZS39)"><clipPath id="eI8vgbxsmZS39"><rect width="182" height="18" rx="0" ry="0" fill="none" stroke-width="0"/></clipPath><g mask="url(#eI8vgbxsmZS53)"><g id="eI8vgbxsmZS42_to" transform="translate(0,0)"><g transform="translate(0,0)"><g id="eI8vgbxsmZS43_to" transform="translate(91,0)"><g transform="translate(0,0)" clip-path="url(#eI8vgbxsmZS44)"><clipPath id="eI8vgbxsmZS44"><rect width="91" height="9" rx="0" ry="0" fill="none" stroke-width="0"/></clipPath><g clip-path="url(#eI8vgbxsmZS47)"><clipPath id="eI8vgbxsmZS47"><rect width="91" height="9" rx="0" ry="0" fill="none" stroke-width="0"/></clipPath><g transform="matrix(.999975 0 0 0.999975 0 0)"><path d="M4,4.45c0,0,82.49,0,82.49,0" paint-order="stroke fill markers" fill="none" fill-rule="evenodd" stroke="#0d243d" stroke-width="7.17" stroke-opacity="0.3" stroke-linecap="round"/></g><g><rect width="91" height="9" rx="0" ry="0" fill="rgba(0,0,0,0)" fill-opacity="0" stroke-width="0"/></g></g></g></g></g></g><mask id="eI8vgbxsmZS53" mask-type="alpha" x="-150%" y="-150%" height="400%" width="400%"><g id="eI8vgbxsmZS54_to" transform="translate(0,0)"><g transform="translate(0,0)" clip-path="url(#eI8vgbxsmZS55)"><clipPath id="eI8vgbxsmZS55"><rect width="182" height="9" rx="0" ry="0" fill="none" stroke-width="0"/></clipPath><g><rect width="182" height="9" rx="0" ry="0" stroke-width="0"/></g><g clip-path="url(#eI8vgbxsmZS60)"><clipPath id="eI8vgbxsmZS60"><rect width="91" height="9" rx="0" ry="0" fill="none" stroke-width="0"/></clipPath><g><rect width="91" height="9" rx="0" ry="0" stroke-width="0"/></g></g></g></g></mask></g></g><mask id="eI8vgbxsmZS64" mask-type="alpha" x="-150%" y="-150%" height="400%" width="400%"><g clip-path="url(#eI8vgbxsmZS66)"><clipPath id="eI8vgbxsmZS66"><rect width="182" height="18" rx="0" ry="0" fill="none" stroke-width="0"/></clipPath><g id="eI8vgbxsmZS68" opacity="0"><rect width="182" height="18" rx="0" ry="0" stroke-width="0"/></g><g clip-path="url(#eI8vgbxsmZS71)"><clipPath id="eI8vgbxsmZS71"><rect width="91" height="9" rx="0" ry="0" fill="none" stroke-width="0"/></clipPath><g><rect width="91" height="9" rx="0" ry="0" stroke-width="0"/></g></g></g></mask></g><clipPath id="eI8vgbxsmZS75"><rect width="182" height="18" rx="0" ry="0" fill="none" stroke-width="0"/></clipPath></g></g><g id="eI8vgbxsmZS77_to" transform="translate(431,323.5)"><g id="eI8vgbxsmZS77" transform="translate(-91,0)" clip-path="url(#eI8vgbxsmZS116)"><g mask="url(#eI8vgbxsmZS105)"><g clip-path="url(#eI8vgbxsmZS80)"><clipPath id="eI8vgbxsmZS80"><rect width="273" height="9" rx="0" ry="0" fill="none" stroke-width="0"/></clipPath><g mask="url(#eI8vgbxsmZS94)"><g id="eI8vgbxsmZS83_to" transform="translate(0,0)"><g transform="translate(91,0)"><g id="eI8vgbxsmZS84_to" transform="translate(91,0)"><g transform="translate(0,0)" clip-path="url(#eI8vgbxsmZS85)"><clipPath id="eI8vgbxsmZS85"><rect width="91" height="9" rx="0" ry="0" fill="none" stroke-width="0"/></clipPath><g clip-path="url(#eI8vgbxsmZS88)"><clipPath id="eI8vgbxsmZS88"><rect width="91" height="9" rx="0" ry="0" fill="none" stroke-width="0"/></clipPath><g transform="matrix(.999975 0 0 0.999975 0 0)"><path d="M4,4.45c0,0,82.49,0,82.49,0" paint-order="stroke fill markers" fill="none" fill-rule="evenodd" stroke="#0d263d" stroke-width="7.17" stroke-linecap="round"/></g><g><rect width="91" height="9" rx="0" ry="0" fill="rgba(0,0,0,0)" fill-opacity="0" stroke-width="0"/></g></g></g></g></g></g><mask id="eI8vgbxsmZS94" mask-type="alpha" x="-150%" y="-150%" height="400%" width="400%"><g id="eI8vgbxsmZS95_to" transform="translate(0,0)"><g transform="translate(91,0)" clip-path="url(#eI8vgbxsmZS96)"><clipPath id="eI8vgbxsmZS96"><rect width="182" height="9" rx="0" ry="0" fill="none" stroke-width="0"/></clipPath><g><rect width="182" height="9" rx="0" ry="0" stroke-width="0"/></g><g clip-path="url(#eI8vgbxsmZS101)"><clipPath id="eI8vgbxsmZS101"><rect width="91" height="9" rx="0" ry="0" fill="none" stroke-width="0"/></clipPath><g><rect width="91" height="9" rx="0" ry="0" stroke-width="0"/></g></g></g></g></mask></g></g><mask id="eI8vgbxsmZS105" mask-type="alpha" x="-150%" y="-150%" height="400%" width="400%"><g clip-path="url(#eI8vgbxsmZS107)"><clipPath id="eI8vgbxsmZS107"><rect width="364" height="9" rx="0" ry="0" fill="none" stroke-width="0"/></clipPath><g id="eI8vgbxsmZS109" transform="translate(91 0)" opacity="0"><rect width="364" height="9" rx="0" ry="0" transform="translate(-91 0)" stroke-width="0"/></g><g transform="translate(91 0)" clip-path="url(#eI8vgbxsmZS112)"><clipPath id="eI8vgbxsmZS112"><rect width="91" height="9" rx="0" ry="0" fill="none" stroke-width="0"/></clipPath><g><rect width="91" height="9" rx="0" ry="0" stroke-width="0"/></g></g></g></mask></g><clipPath id="eI8vgbxsmZS116"><rect width="364" height="9" rx="0" ry="0" fill="none" stroke-width="0"/></clipPath></g></g><g id="eI8vgbxsmZS118_to" transform="translate(166.224,323.5)"><g id="eI8vgbxsmZS118" transform="translate(-91,0)" clip-path="url(#eI8vgbxsmZS157)"><g mask="url(#eI8vgbxsmZS146)"><g clip-path="url(#eI8vgbxsmZS121)"><clipPath id="eI8vgbxsmZS121"><rect width="273" height="9" rx="0" ry="0" fill="none" stroke-width="0"/></clipPath><g mask="url(#eI8vgbxsmZS135)"><g id="eI8vgbxsmZS124_to" transform="translate(0,0)"><g transform="translate(91,0)"><g id="eI8vgbxsmZS125_to" transform="translate(91,0)"><g transform="translate(0,0)" clip-path="url(#eI8vgbxsmZS126)"><clipPath id="eI8vgbxsmZS126"><rect width="91" height="9" rx="0" ry="0" fill="none" stroke-width="0"/></clipPath><g clip-path="url(#eI8vgbxsmZS129)"><clipPath id="eI8vgbxsmZS129"><rect width="91" height="9" rx="0" ry="0" fill="none" stroke-width="0"/></clipPath><g transform="matrix(.999975 0 0 0.999975 0 0)"><path d="M4,4.45c0,0,82.49,0,82.49,0" paint-order="stroke fill markers" fill="none" fill-rule="evenodd" stroke="#0d263d" stroke-width="7.17" stroke-linecap="round"/></g><g><rect width="91" height="9" rx="0" ry="0" fill="rgba(0,0,0,0)" fill-opacity="0" stroke-width="0"/></g></g></g></g></g></g><mask id="eI8vgbxsmZS135" mask-type="alpha" x="-150%" y="-150%" height="400%" width="400%"><g id="eI8vgbxsmZS136_to" transform="translate(0,0)"><g transform="translate(91,0)" clip-path="url(#eI8vgbxsmZS137)"><clipPath id="eI8vgbxsmZS137"><rect width="182" height="9" rx="0" ry="0" fill="none" stroke-width="0"/></clipPath><g><rect width="182" height="9" rx="0" ry="0" stroke-width="0"/></g><g clip-path="url(#eI8vgbxsmZS142)"><clipPath id="eI8vgbxsmZS142"><rect width="91" height="9" rx="0" ry="0" fill="none" stroke-width="0"/></clipPath><g><rect width="91" height="9" rx="0" ry="0" stroke-width="0"/></g></g></g></g></mask></g></g><mask id="eI8vgbxsmZS146" mask-type="alpha" x="-150%" y="-150%" height="400%" width="400%"><g clip-path="url(#eI8vgbxsmZS148)"><clipPath id="eI8vgbxsmZS148"><rect width="364" height="9" rx="0" ry="0" fill="none" stroke-width="0"/></clipPath><g id="eI8vgbxsmZS150" transform="translate(91 0)" opacity="0"><rect width="364" height="9" rx="0" ry="0" transform="translate(-91 0)" stroke-width="0"/></g><g transform="translate(91 0)" clip-path="url(#eI8vgbxsmZS153)"><clipPath id="eI8vgbxsmZS153"><rect width="91" height="9" rx="0" ry="0" fill="none" stroke-width="0"/></clipPath><g><rect width="91" height="9" rx="0" ry="0" stroke-width="0"/></g></g></g></mask></g><clipPath id="eI8vgbxsmZS157"><rect width="364" height="9" rx="0" ry="0" fill="none" stroke-width="0"/></clipPath></g></g><g id="eI8vgbxsmZS159_to" transform="translate(538,156.5)"><g id="eI8vgbxsmZS159" transform="translate(0,0)" clip-path="url(#eI8vgbxsmZS198)"><g mask="url(#eI8vgbxsmZS187)"><g clip-path="url(#eI8vgbxsmZS162)"><clipPath id="eI8vgbxsmZS162"><rect width="182" height="18" rx="0" ry="0" fill="none" stroke-width="0"/></clipPath><g mask="url(#eI8vgbxsmZS176)"><g id="eI8vgbxsmZS165_to" transform="translate(0,0)"><g transform="translate(0,0)"><g id="eI8vgbxsmZS166_to" transform="translate(91,0)"><g transform="translate(0,0)" clip-path="url(#eI8vgbxsmZS167)"><clipPath id="eI8vgbxsmZS167"><rect width="91" height="9" rx="0" ry="0" fill="none" stroke-width="0"/></clipPath><g clip-path="url(#eI8vgbxsmZS170)"><clipPath id="eI8vgbxsmZS170"><rect width="91" height="9" rx="0" ry="0" fill="none" stroke-width="0"/></clipPath><g transform="matrix(.999975 0 0 0.999975 0 0)"><path d="M4,4.45c0,0,82.49,0,82.49,0" paint-order="stroke fill markers" fill="none" fill-rule="evenodd" stroke="#0d243d" stroke-width="7.17" stroke-opacity="0.3" stroke-linecap="round"/></g><g><rect width="91" height="9" rx="0" ry="0" fill="rgba(0,0,0,0)" fill-opacity="0" stroke-width="0"/></g></g></g></g></g></g><mask id="eI8vgbxsmZS176" mask-type="alpha" x="-150%" y="-150%" height="400%" width="400%"><g id="eI8vgbxsmZS177_to" transform="translate(0,0)"><g transform="translate(0,0)" clip-path="url(#eI8vgbxsmZS178)"><clipPath id="eI8vgbxsmZS178"><rect width="182" height="9" rx="0" ry="0" fill="none" stroke-width="0"/></clipPath><g><rect width="182" height="9" rx="0" ry="0" stroke-width="0"/></g><g clip-path="url(#eI8vgbxsmZS183)"><clipPath id="eI8vgbxsmZS183"><rect width="91" height="9" rx="0" ry="0" fill="none" stroke-width="0"/></clipPath><g><rect width="91" height="9" rx="0" ry="0" stroke-width="0"/></g></g></g></g></mask></g></g><mask id="eI8vgbxsmZS187" mask-type="alpha" x="-150%" y="-150%" height="400%" width="400%"><g clip-path="url(#eI8vgbxsmZS189)"><clipPath id="eI8vgbxsmZS189"><rect width="182" height="18" rx="0" ry="0" fill="none" stroke-width="0"/></clipPath><g id="eI8vgbxsmZS191" opacity="0"><rect width="182" height="18" rx="0" ry="0" stroke-width="0"/></g><g clip-path="url(#eI8vgbxsmZS194)"><clipPath id="eI8vgbxsmZS194"><rect width="91" height="9" rx="0" ry="0" fill="none" stroke-width="0"/></clipPath><g><rect width="91" height="9" rx="0" ry="0" stroke-width="0"/></g></g></g></mask></g><clipPath id="eI8vgbxsmZS198"><rect width="182" height="18" rx="0" ry="0" fill="none" stroke-width="0"/></clipPath></g></g><g id="eI8vgbxsmZS200_to" transform="translate(543.438,14)"><g id="eI8vgbxsmZS200" transform="translate(0,0)" clip-path="url(#eI8vgbxsmZS239)"><g mask="url(#eI8vgbxsmZS228)"><g clip-path="url(#eI8vgbxsmZS203)"><clipPath id="eI8vgbxsmZS203"><rect width="182" height="18" rx="0" ry="0" fill="none" stroke-width="0"/></clipPath><g mask="url(#eI8vgbxsmZS217)"><g id="eI8vgbxsmZS206_to" transform="translate(0,0)"><g transform="translate(0,0)"><g id="eI8vgbxsmZS207_to" transform="translate(91,0)"><g transform="translate(0,0)" clip-path="url(#eI8vgbxsmZS208)"><clipPath id="eI8vgbxsmZS208"><rect width="91" height="9" rx="0" ry="0" fill="none" stroke-width="0"/></clipPath><g clip-path="url(#eI8vgbxsmZS211)"><clipPath id="eI8vgbxsmZS211"><rect width="91" height="9" rx="0" ry="0" fill="none" stroke-width="0"/></clipPath><g transform="matrix(.999975 0 0 0.999975 0 0)"><path d="M4,4.45c0,0,82.49,0,82.49,0" paint-order="stroke fill markers" fill="none" fill-rule="evenodd" stroke="#0d243d" stroke-width="7.17" stroke-opacity="0.3" stroke-linecap="round"/></g><g><rect width="91" height="9" rx="0" ry="0" fill="rgba(0,0,0,0)" fill-opacity="0" stroke-width="0"/></g></g></g></g></g></g><mask id="eI8vgbxsmZS217" mask-type="alpha" x="-150%" y="-150%" height="400%" width="400%"><g id="eI8vgbxsmZS218_to" transform="translate(0,0)"><g transform="translate(0,0)" clip-path="url(#eI8vgbxsmZS219)"><clipPath id="eI8vgbxsmZS219"><rect width="182" height="9" rx="0" ry="0" fill="none" stroke-width="0"/></clipPath><g><rect width="182" height="9" rx="0" ry="0" stroke-width="0"/></g><g clip-path="url(#eI8vgbxsmZS224)"><clipPath id="eI8vgbxsmZS224"><rect width="91" height="9" rx="0" ry="0" fill="none" stroke-width="0"/></clipPath><g><rect width="91" height="9" rx="0" ry="0" stroke-width="0"/></g></g></g></g></mask></g></g><mask id="eI8vgbxsmZS228" mask-type="alpha" x="-150%" y="-150%" height="400%" width="400%"><g clip-path="url(#eI8vgbxsmZS230)"><clipPath id="eI8vgbxsmZS230"><rect width="182" height="18" rx="0" ry="0" fill="none" stroke-width="0"/></clipPath><g id="eI8vgbxsmZS232" opacity="0"><rect width="182" height="18" rx="0" ry="0" stroke-width="0"/></g><g clip-path="url(#eI8vgbxsmZS235)"><clipPath id="eI8vgbxsmZS235"><rect width="91" height="9" rx="0" ry="0" fill="none" stroke-width="0"/></clipPath><g><rect width="91" height="9" rx="0" ry="0" stroke-width="0"/></g></g></g></mask></g><clipPath id="eI8vgbxsmZS239"><rect width="182" height="18" rx="0" ry="0" fill="none" stroke-width="0"/></clipPath></g></g><g id="eI8vgbxsmZS241_to" transform="translate(401.5,323.5)"><g id="eI8vgbxsmZS241" transform="translate(-91,0)" clip-path="url(#eI8vgbxsmZS279)"><g mask="url(#eI8vgbxsmZS268)"><g clip-path="url(#eI8vgbxsmZS244)"><clipPath id="eI8vgbxsmZS244"><rect width="273" height="9" rx="0" ry="0" fill="none" stroke-width="0"/></clipPath><g mask="url(#eI8vgbxsmZS257)"><g id="eI8vgbxsmZS247_to" transform="translate(0,0)"><g transform="translate(91,0)" clip-path="url(#eI8vgbxsmZS248)"><clipPath id="eI8vgbxsmZS248"><rect width="182" height="9" rx="0" ry="0" fill="none" stroke-width="0"/></clipPath><g id="eI8vgbxsmZS250_to" transform="translate(91,0)"><g transform="translate(0,0)" clip-path="url(#eI8vgbxsmZS251)"><clipPath id="eI8vgbxsmZS251"><rect width="91" height="9" rx="0" ry="0" fill="none" stroke-width="0"/></clipPath><g transform="matrix(.999975 0 0 0.999975 0 0)"><path d="M4,4.45c0,0,82.49,0,82.49,0" paint-order="stroke fill markers" fill="none" fill-rule="evenodd" stroke="#0d263d" stroke-width="7.17" stroke-linecap="round"/></g><g><rect width="91" height="9" rx="0" ry="0" fill="rgba(0,0,0,0)" fill-opacity="0" stroke-width="0"/></g></g></g></g></g><mask id="eI8vgbxsmZS257" mask-type="alpha" x="-150%" y="-150%" height="400%" width="400%"><g id="eI8vgbxsmZS258_to" transform="translate(0,0)"><g transform="translate(91,0)" clip-path="url(#eI8vgbxsmZS259)"><clipPath id="eI8vgbxsmZS259"><rect width="182" height="9" rx="0" ry="0" fill="none" stroke-width="0"/></clipPath><g><rect width="182" height="9" rx="0" ry="0" stroke-width="0"/></g><g clip-path="url(#eI8vgbxsmZS264)"><clipPath id="eI8vgbxsmZS264"><rect width="91" height="9" rx="0" ry="0" fill="none" stroke-width="0"/></clipPath><g><rect width="91" height="9" rx="0" ry="0" stroke-width="0"/></g></g></g></g></mask></g></g><mask id="eI8vgbxsmZS268" mask-type="alpha" x="-150%" y="-150%" height="400%" width="400%"><g clip-path="url(#eI8vgbxsmZS270)"><clipPath id="eI8vgbxsmZS270"><rect width="364" height="9" rx="0" ry="0" fill="none" stroke-width="0"/></clipPath><g id="eI8vgbxsmZS272" transform="translate(91 0)" opacity="0"><rect width="364" height="9" rx="0" ry="0" transform="translate(-91 0)" stroke-width="0"/></g><g transform="translate(91 0)" clip-path="url(#eI8vgbxsmZS275)"><clipPath id="eI8vgbxsmZS275"><rect width="91" height="9" rx="0" ry="0" fill="none" stroke-width="0"/></clipPath><g><rect width="91" height="9" rx="0" ry="0" stroke-width="0"/></g></g></g></mask></g><clipPath id="eI8vgbxsmZS279"><rect width="364" height="9" rx="0" ry="0" fill="none" stroke-width="0"/></clipPath></g></g><g id="eI8vgbxsmZS281_to" transform="translate(525.225,108)"><g id="eI8vgbxsmZS281" transform="translate(0,0)" clip-path="url(#eI8vgbxsmZS320)"><g mask="url(#eI8vgbxsmZS309)"><g clip-path="url(#eI8vgbxsmZS284)"><clipPath id="eI8vgbxsmZS284"><rect width="182" height="18" rx="0" ry="0" fill="none" stroke-width="0"/></clipPath><g mask="url(#eI8vgbxsmZS298)"><g id="eI8vgbxsmZS287_to" transform="translate(0,0)"><g transform="translate(0,0)"><g id="eI8vgbxsmZS288_to" transform="translate(91,0)"><g transform="translate(0,0)" clip-path="url(#eI8vgbxsmZS289)"><clipPath id="eI8vgbxsmZS289"><rect width="91" height="9" rx="0" ry="0" fill="none" stroke-width="0"/></clipPath><g clip-path="url(#eI8vgbxsmZS292)"><clipPath id="eI8vgbxsmZS292"><rect width="91" height="9" rx="0" ry="0" fill="none" stroke-width="0"/></clipPath><g transform="matrix(.999975 0 0 0.999975 0 0)"><path d="M4,4.45c0,0,82.49,0,82.49,0" paint-order="stroke fill markers" fill="none" fill-rule="evenodd" stroke="#0d243d" stroke-width="7.17" stroke-opacity="0.3" stroke-linecap="round"/></g><g><rect width="91" height="9" rx="0" ry="0" fill="rgba(0,0,0,0)" fill-opacity="0" stroke-width="0"/></g></g></g></g></g></g><mask id="eI8vgbxsmZS298" mask-type="alpha" x="-150%" y="-150%" height="400%" width="400%"><g id="eI8vgbxsmZS299_to" transform="translate(0,0)"><g transform="translate(0,0)" clip-path="url(#eI8vgbxsmZS300)"><clipPath id="eI8vgbxsmZS300"><rect width="182" height="9" rx="0" ry="0" fill="none" stroke-width="0"/></clipPath><g><rect width="182" height="9" rx="0" ry="0" stroke-width="0"/></g><g clip-path="url(#eI8vgbxsmZS305)"><clipPath id="eI8vgbxsmZS305"><rect width="91" height="9" rx="0" ry="0" fill="none" stroke-width="0"/></clipPath><g><rect width="91" height="9" rx="0" ry="0" stroke-width="0"/></g></g></g></g></mask></g></g><mask id="eI8vgbxsmZS309" mask-type="alpha" x="-150%" y="-150%" height="400%" width="400%"><g clip-path="url(#eI8vgbxsmZS311)"><clipPath id="eI8vgbxsmZS311"><rect width="182" height="18" rx="0" ry="0" fill="none" stroke-width="0"/></clipPath><g id="eI8vgbxsmZS313" opacity="0"><rect width="182" height="18" rx="0" ry="0" stroke-width="0"/></g><g clip-path="url(#eI8vgbxsmZS316)"><clipPath id="eI8vgbxsmZS316"><rect width="91" height="9" rx="0" ry="0" fill="none" stroke-width="0"/></clipPath><g><rect width="91" height="9" rx="0" ry="0" stroke-width="0"/></g></g></g></mask></g><clipPath id="eI8vgbxsmZS320"><rect width="182" height="18" rx="0" ry="0" fill="none" stroke-width="0"/></clipPath></g></g><g id="eI8vgbxsmZS322_to" transform="translate(146.5,323.5)"><g id="eI8vgbxsmZS322" style="isolation:isolate" transform="translate(-91,0)" clip-path="url(#eI8vgbxsmZS360)"><g mask="url(#eI8vgbxsmZS349)"><g clip-path="url(#eI8vgbxsmZS325)"><clipPath id="eI8vgbxsmZS325"><rect width="273" height="9" rx="0" ry="0" fill="none" stroke-width="0"/></clipPath><g mask="url(#eI8vgbxsmZS338)"><g id="eI8vgbxsmZS328_to" transform="translate(0,0)"><g transform="translate(91,0)" clip-path="url(#eI8vgbxsmZS329)"><clipPath id="eI8vgbxsmZS329"><rect width="182" height="9" rx="0" ry="0" fill="none" stroke-width="0"/></clipPath><g id="eI8vgbxsmZS331_to" transform="translate(91,0)"><g transform="translate(0,0)" clip-path="url(#eI8vgbxsmZS332)"><clipPath id="eI8vgbxsmZS332"><rect width="91" height="9" rx="0" ry="0" fill="none" stroke-width="0"/></clipPath><g transform="matrix(.999975 0 0 0.999975 0 0)"><path d="M4,4.45c0,0,82.49,0,82.49,0" paint-order="stroke fill markers" fill="none" fill-rule="evenodd" stroke="#0d263d" stroke-width="7.17" stroke-linecap="round"/></g><g><rect width="91" height="9" rx="0" ry="0" fill="rgba(0,0,0,0)" fill-opacity="0" stroke-width="0"/></g></g></g></g></g><mask id="eI8vgbxsmZS338" mask-type="alpha" x="-150%" y="-150%" height="400%" width="400%"><g id="eI8vgbxsmZS339_to" transform="translate(0,0)"><g transform="translate(91,0)" clip-path="url(#eI8vgbxsmZS340)"><clipPath id="eI8vgbxsmZS340"><rect width="182" height="9" rx="0" ry="0" fill="none" stroke-width="0"/></clipPath><g><rect width="182" height="9" rx="0" ry="0" stroke-width="0"/></g><g clip-path="url(#eI8vgbxsmZS345)"><clipPath id="eI8vgbxsmZS345"><rect width="91" height="9" rx="0" ry="0" fill="none" stroke-width="0"/></clipPath><g><rect width="91" height="9" rx="0" ry="0" stroke-width="0"/></g></g></g></g></mask></g></g><mask id="eI8vgbxsmZS349" mask-type="alpha" x="-150%" y="-150%" height="400%" width="400%"><g clip-path="url(#eI8vgbxsmZS351)"><clipPath id="eI8vgbxsmZS351"><rect width="364" height="9" rx="0" ry="0" fill="none" stroke-width="0"/></clipPath><g id="eI8vgbxsmZS353" transform="translate(91 0)" opacity="0"><rect width="364" height="9" rx="0" ry="0" transform="translate(-91 0)" stroke-width="0"/></g><g transform="translate(91 0)" clip-path="url(#eI8vgbxsmZS356)"><clipPath id="eI8vgbxsmZS356"><rect width="91" height="9" rx="0" ry="0" fill="none" stroke-width="0"/></clipPath><g><rect width="91" height="9" rx="0" ry="0" stroke-width="0"/></g></g></g></mask></g><clipPath id="eI8vgbxsmZS360"><rect width="364" height="9" rx="0" ry="0" fill="none" stroke-width="0"/></clipPath></g></g></g></svg>