<svg width="165" height="164" viewBox="0 0 165 164" fill="none" xmlns="http://www.w3.org/2000/svg">
<circle cx="82.5" cy="82" r="82" fill="#E0F2FE"/>
<g clip-path="url(#clip0_160_105)">
<path fill-rule="evenodd" clip-rule="evenodd" d="M42.3391 62.3999C42.3391 56.8051 46.8751 52.2749 52.4641 52.2749H103.494C109.089 52.2749 113.619 56.8051 113.619 62.3999V77.9056H115.077C119.069 77.9056 122.309 81.1456 122.309 85.1378V104.722C122.309 108.425 119.532 111.474 115.945 111.902C116.116 109.896 115.869 107.875 115.217 105.969C114.566 104.063 113.526 102.313 112.162 100.831C110.798 99.3482 109.141 98.1655 107.296 97.3578C105.451 96.55 103.458 96.1347 101.444 96.1383C99.4294 96.142 97.4379 96.5644 95.5957 97.3788C93.7534 98.1932 92.1007 99.3818 90.7423 100.869C89.384 102.356 88.3498 104.11 87.7054 106.018C87.061 107.927 86.8204 109.948 86.9991 111.955H74.8086C74.9731 110.035 74.7543 108.102 74.1648 106.268C73.5754 104.434 72.6271 102.736 71.3751 101.272C70.1232 99.8078 68.5926 98.6074 66.8723 97.7404C65.1521 96.8734 63.2766 96.3571 61.355 96.2217C59.4334 96.0863 57.5041 96.3344 55.6793 96.9516C53.8544 97.5687 52.1706 98.5427 50.7256 99.8167C49.2807 101.091 48.1036 102.639 47.2628 104.372C46.4219 106.106 45.9342 107.989 45.8279 109.912C44.7369 109.043 43.8564 107.938 43.2523 106.681C42.6482 105.424 42.336 104.046 42.3391 102.651V62.3999ZM52.4641 66.5888C52.0805 66.5888 51.7126 66.7411 51.4414 67.0124C51.1701 67.2837 51.0177 67.6516 51.0177 68.0352V78.1602H62.6644V66.5888H52.4641ZM71.3429 66.5888V78.1602H84.2624V66.5888H71.3429ZM104.946 78.1602H92.9352V66.5888H103.494C103.878 66.5888 104.246 66.7411 104.517 67.0124C104.788 67.2837 104.941 67.6516 104.941 68.0352L104.946 78.1602ZM67.6285 110.676C67.656 111.651 67.4876 112.622 67.1335 113.53C66.7793 114.439 66.2465 115.268 65.5666 115.967C64.8867 116.666 64.0735 117.222 63.175 117.602C62.2765 117.982 61.311 118.177 60.3356 118.177C59.3602 118.177 58.3947 117.982 57.4962 117.602C56.5977 117.222 55.7845 116.666 55.1046 115.967C54.4247 115.268 53.8919 114.439 53.5377 113.53C53.1836 112.622 53.0152 111.651 53.0427 110.676C53.0962 108.777 53.888 106.974 55.2499 105.65C56.6117 104.326 58.4362 103.586 60.3356 103.586C62.235 103.586 64.0595 104.326 65.4214 105.65C66.7832 106.974 67.575 108.777 67.6285 110.676ZM108.765 110.676C108.765 112.611 107.996 114.467 106.628 115.835C105.26 117.203 103.404 117.972 101.469 117.972C99.5342 117.972 97.6785 117.203 96.3102 115.835C94.942 114.467 94.1734 112.611 94.1734 110.676C94.1734 108.741 94.942 106.885 96.3102 105.517C97.6785 104.149 99.5342 103.38 101.469 103.38C103.404 103.38 105.26 104.149 106.628 105.517C107.996 106.885 108.765 108.741 108.765 110.676Z" fill="#2071C2"/>
</g>
<defs>
<clipPath id="clip0_160_105">
<rect width="81" height="81" fill="white" transform="translate(41.5 42)"/>
</clipPath>
</defs>
</svg>
