<svg width="304" height="197" viewBox="0 0 304 197" fill="none" xmlns="http://www.w3.org/2000/svg">
<path d="M3 113.188H51.299" stroke="#0E263E" stroke-width="4.19992" stroke-linecap="round"/>
<path d="M27.1494 99.748L51.2989 99.748" stroke="#0E263E" stroke-width="4.19992" stroke-linecap="round"/>
<ellipse cx="70.8292" cy="41.9993" rx="41.9991" ry="41.9992" fill="url(#paint0_linear_113_184)"/>
<path fill-rule="evenodd" clip-rule="evenodd" d="M53.5046 34.2742V126.044H53.5255H53.5549H53.5845H53.6142H53.644H53.6741H53.7043H53.7346H53.7651H53.7958H53.8266H53.8576H53.8888H53.9201H53.9515H53.9831H54.0149H54.0468H54.0788H54.111H54.1434H54.1759H54.2086H54.2414H54.2743H54.3074H54.3407H54.374H54.4076H54.4412H54.475H54.509H54.5431H54.5773H54.6117H54.6462H54.6808H54.7156H54.7505H54.7855H54.8207H54.856H54.8915H54.927H54.9628H54.9986H55.0345H55.0706H55.1068H55.1432H55.1796H55.2162H55.2529H55.2898H55.3267H55.3638H55.401H55.4383H55.4758H55.5133H55.551H55.5888H55.6267H55.6647H55.7028H55.7411H55.7794H55.8179H55.8565H55.8952H55.934H55.9729H56.0119H56.051H56.0902H56.1295H56.169H56.2085H56.2481H56.2879H56.3277H56.3677H56.4077H56.4478H56.4881H56.5284H56.5688H56.6093H56.65H56.6907H56.7315H56.7724H56.8134H56.8544H56.8956H56.9368H56.9782H57.0196H57.0611H57.1027H57.1444H57.1862H57.228H57.27H57.312H57.3541H57.3962H57.4385H57.4808H57.5232H57.5657H57.6083H57.6509H57.6936H57.7364H57.7792H57.8222H57.8652H57.9082H57.9514H57.9946H58.0378H58.0812H58.1246H58.168H58.2116H58.2552H58.2988H58.3426H58.3863H58.4302H58.4741H58.518H58.562H58.6061H58.6502H58.6944H58.7387H58.783H58.8273H58.8717H58.9162H58.929C58.7454 127.102 58.6498 128.189 58.6498 129.299C58.6498 129.616 58.6576 129.931 58.673 130.244H58.6502H58.6061H58.562H58.518H58.4741H58.4302H58.3863H58.3426H58.2988H58.2552H58.2116H58.168H58.1246H58.0812H58.0378H57.9946H57.9514H57.9082H57.8652H57.8222H57.7792H57.7364H57.6936H57.6509H57.6083H57.5657H57.5232H57.4808H57.4385H57.3962H57.3541H57.312H57.27H57.228H57.1862H57.1444H57.1027H57.0611H57.0196H56.9782H56.9368H56.8956H56.8544H56.8134H56.7724H56.7315H56.6907H56.65H56.6093H56.5688H56.5284H56.4881H56.4478H56.4077H56.3677H56.3277H56.2879H56.2481H56.2085H56.169H56.1295H56.0902H56.051H56.0119H55.9729H55.934H55.8952H55.8565H55.8179H55.7794H55.7411H55.7028H55.6647H55.6267H55.5888H55.551H55.5133H55.4758H55.4383H55.401H55.3638H55.3267H55.2898H55.2529H55.2162H55.1796H55.1432H55.1068H55.0706H55.0345H54.9986H54.9628H54.927H54.8915H54.856H54.8207H54.7855H54.7505H54.7156H54.6808H54.6462H54.6117H54.5773H54.5431H54.509H54.475H54.4412H54.4076H54.374H54.3407H54.3074H54.2743H54.2414H54.2086H54.1759H54.1434H54.111H54.0788H54.0468H54.0149H53.9831H53.9515H53.9201H53.8888H53.8576H53.8266H53.7958H53.7651H53.7346H53.7043H53.6741H53.644H53.6142H53.5845H53.5549H53.5255H53.4963H53.4673H53.4384H53.4097H53.3811H53.3527H53.3245H53.2965H53.2686H53.2409H53.2134H53.186H53.1589H53.1319H53.105H53.0784H53.0519H53.0256H52.9995H52.9736H52.9478H52.9223H52.8969H52.8717H52.8467H52.8218H52.7972H52.7727H52.7484H52.7244H52.7005H52.6768H52.6532H52.6299H52.6068H52.5839H52.5611H52.5386H52.5162H52.4941H52.4721H52.4503C50.6995 130.244 49.3047 128.823 49.3047 127.094V33.2251C49.3047 31.6346 50.5166 30.0769 52.3979 30.0752C63.5177 30.0652 164.83 29.9766 168.637 30.0769C172.806 30.1865 176.714 30.8455 180.12 32.0944C183.467 33.3215 186.923 35.2141 189.739 37.4661C190.208 37.8417 191.115 38.7704 192.207 39.9242C193.356 41.1389 194.852 42.7556 196.576 44.6392C200.026 48.408 204.418 53.2733 208.847 58.1878C209.718 59.154 210.589 60.121 211.454 61.081L211.456 61.0829L211.459 61.0867C219.442 69.9472 226.895 78.2206 228.636 79.9155C229.491 80.7481 231.197 82.0356 233.429 83.5772C235.62 85.0909 238.197 86.7678 240.702 88.3638C242.844 89.7283 244.921 91.0255 246.649 92.1049L246.651 92.1065L247.494 92.6329C248.427 93.2164 249.231 93.7206 249.839 94.1095C250.388 94.4603 250.917 94.8042 251.18 95.0194C253.305 96.758 254.111 99.4025 254.495 101.654C254.693 102.817 254.797 103.989 254.873 105.046C254.896 105.365 254.917 105.668 254.936 105.957L254.937 105.962L254.937 105.963C254.985 106.668 255.027 107.29 255.089 107.865L255.101 107.977V108.09V108.107V108.125V108.143V108.162V108.18V108.198V108.217V108.236V108.255V108.274V108.293V108.312V108.332V108.351V108.371V108.391V108.411V108.431V108.451V108.472V108.492V108.513V108.534V108.555V108.576V108.597V108.618V108.64V108.661V108.683V108.705V108.727V108.749V108.771V108.794V108.816V108.839V108.862V108.884V108.907V108.931V108.954V108.977V109.001V109.024V109.048V109.072V109.096V109.12V109.144V109.169V109.193V109.218V109.242V109.267V109.292V109.317V109.342V109.368V109.393V109.418V109.444V109.47V109.496V109.522V109.548V109.574V109.6V109.627V109.653V109.68V109.707V109.733V109.76V109.787V109.815V109.842V109.869V109.897V109.924V109.952V109.98V110.008V110.036V110.064V110.092V110.121V110.149V110.177V110.206V110.235V110.264V110.293V110.322V110.351V110.38V110.409V110.439V110.468V110.498V110.528V110.557V110.587V110.617V110.647V110.678V110.708V110.738V110.769V110.799V110.83V110.861V110.891V110.922V110.953V110.984V111.016V111.047V111.078V111.11V111.141V111.173V111.204V111.236V111.268V111.3V111.332V111.364V111.396V111.429V111.461V111.493V111.526V111.558V111.591V111.624V111.657V111.69V111.723V111.756V111.789V111.822V111.855V111.889V111.922V111.956V111.989V112.023V112.057V112.09V112.124V112.158V112.192V112.226V112.26V112.295V112.329V112.363V112.398V112.432V112.467V112.501V112.536V112.571V112.606V112.641V112.675V112.711V112.746V112.781V112.816V112.851V112.886V112.922V112.957V112.993V113.028V113.064V113.1V113.135V113.171V113.207V113.243V113.279V113.315V113.351V113.387V113.423V113.46V113.496V113.532V113.569V113.605V113.641V113.678V113.715V113.751V113.788V113.825V113.861V113.898V113.935V113.972V114.009V114.046V114.083V114.12V114.157V114.195V114.232V114.269V114.306V114.344V114.381V114.419V114.456V114.494V114.531V114.569V114.606V114.644V114.682V114.719V114.757V114.795V114.833V114.871V114.909V114.947V114.985V115.023V115.061V115.099V115.137V115.175V115.213V115.252V115.29V115.328V115.366V115.405V115.443V115.481V115.52V115.558V115.597V115.635V115.674V115.712V115.751V115.789V115.828V115.867V115.905V115.944V115.983V116.021V116.06V116.099V116.138V116.176V116.215V116.254V116.293V116.332V116.371V116.409V116.448V116.487V116.526V116.565V116.604V116.643V116.682V116.721V116.76V116.799V116.838V116.877V116.916V116.955V116.994V117.033V117.072V117.112V117.151V117.19V117.229V117.268V117.307V117.346V117.385V117.424V117.464V117.503V117.542V117.581V117.62V117.659V117.698V117.737V117.777V117.816V117.855V117.894V117.933V117.972V118.011V118.05V118.09V118.129V118.168V118.207V118.246V118.285V118.324V118.363V118.402V118.441V118.48V118.519V118.558V118.597V118.636V118.675V118.714V118.753V118.792V118.831V118.87V118.909V118.947V118.986V119.025V119.064V119.103V119.142V119.18V119.219V119.258V119.296V119.335V119.374V119.412V119.451V119.49V119.528V119.567V119.605V119.644V119.682V119.721V119.759V119.798V119.836V119.874V119.913V119.951V119.989V120.027V120.066V120.104V120.142V120.18V120.218V120.256V120.294V120.332V120.37V120.408V120.446V120.484V120.521V120.559V120.597V120.635V120.672V120.71V120.747V120.785V120.822V120.86V120.897V120.935V120.972V121.009V121.047V121.084V121.121V121.158V121.195V121.232V121.269V121.306V121.343V121.38V121.417V121.454V121.49V121.527V121.563V121.6V121.637V121.673V121.709V121.746V121.782V121.818V121.855V121.891V121.927V121.963V121.999V122.035V122.071V122.106V122.142V122.178V122.214V122.249V122.285V122.32V122.356V122.391V122.426V122.461V122.497V122.532V122.567V122.602V122.637V122.672V122.706V122.741V122.776V122.81V122.845V122.879V122.914V122.948V122.982V123.016V123.051V123.085V123.119V123.153V123.186V123.22V123.254V123.287V123.321V123.354V123.388V123.421V123.454V123.488V123.521V123.554V123.587V123.62V123.652V123.685V123.718V123.75V123.783V123.815V123.847V123.88V123.912V123.944V123.976V124.008V124.04V124.071V124.103V124.135V124.166V124.197V124.229V124.26V124.291V124.322V124.353V124.384V124.415V124.445V124.476V124.506V124.537V124.567V124.597V124.628V124.658V124.688V124.717V124.747V124.777V124.806V124.836V124.865V124.895V124.924V124.953V124.982V125.011V125.039V125.068V125.097V125.125V125.154V125.182V125.21C255.101 127.999 252.839 130.244 250.061 130.244H245.522C245.538 129.931 245.546 129.616 245.546 129.299C245.546 128.189 245.45 127.102 245.266 126.044H250.061C250.53 126.044 250.901 125.669 250.901 125.21V125.182V125.154V125.125V125.097V125.068V125.039V125.011V124.982V124.953V124.924V124.895V124.865V124.836V124.806V124.777V124.747V124.717V124.688V124.658V124.628V124.597V124.567V124.537V124.506V124.476V124.445V124.415V124.384V124.353V124.322V124.291V124.26V124.229V124.197V124.166V124.135V124.103V124.071V124.04V124.008V123.976V123.944V123.912V123.88V123.847V123.815V123.783V123.75V123.718V123.685V123.652V123.62V123.587V123.554V123.521V123.488V123.454V123.421V123.388V123.354V123.321V123.287V123.254V123.22V123.186V123.153V123.119V123.085V123.051V123.016V122.982V122.948V122.914V122.879V122.845V122.81V122.776V122.741V122.706V122.672V122.637V122.602V122.567V122.532V122.497V122.461V122.426V122.391V122.356V122.32V122.285V122.249V122.214V122.178V122.142V122.106V122.071V122.035V121.999V121.963V121.927V121.891V121.855V121.818V121.782V121.746V121.709V121.673V121.637V121.6V121.563V121.527V121.49V121.454V121.417V121.38V121.343V121.306V121.269V121.232V121.195V121.158V121.121V121.084V121.047V121.009V120.972V120.935V120.897V120.86V120.822V120.785V120.747V120.71V120.672V120.635V120.597V120.559V120.521V120.484V120.446V120.408V120.37V120.332V120.294V120.256V120.218V120.18V120.142V120.104V120.066V120.027V119.989V119.951V119.913V119.874V119.836V119.798V119.759V119.721V119.682V119.644V119.605V119.567V119.528V119.49V119.451V119.412V119.374V119.335V119.296V119.258V119.219V119.18V119.142V119.103V119.064V119.025V118.986V118.947V118.909V118.87V118.831V118.792V118.753V118.714V118.675V118.636V118.597V118.558V118.519V118.48V118.441V118.402V118.363V118.324V118.285V118.246V118.207V118.168V118.129V118.09V118.05V118.011V117.972V117.933V117.894V117.855V117.816V117.777V117.737V117.698V117.659V117.62V117.581V117.542V117.503V117.464V117.424V117.385V117.346V117.307V117.268V117.229V117.19V117.151V117.112V117.072V117.033V116.994V116.955V116.916V116.877V116.838V116.799V116.76V116.721V116.682V116.643V116.604V116.565V116.526V116.487V116.448V116.409V116.371V116.332V116.293V116.254V116.215V116.176V116.138V116.099V116.06V116.021V115.983V115.944V115.905V115.867V115.828V115.789V115.751V115.712V115.674V115.635V115.597V115.558V115.52V115.481V115.443V115.405V115.366V115.328V115.29V115.252V115.213V115.175V115.137V115.099V115.061V115.023V114.985V114.947V114.909V114.871V114.833V114.795V114.757V114.719V114.682V114.644V114.606V114.569V114.531V114.494V114.456V114.419V114.381V114.344V114.306V114.269V114.232V114.195V114.157V114.12V114.083V114.046V114.009V113.972V113.935V113.898V113.861V113.825V113.788V113.751V113.715V113.678V113.641V113.605V113.569V113.532V113.496V113.46V113.423V113.387V113.351V113.315V113.279V113.243V113.207V113.171V113.135V113.1V113.064V113.028V112.993V112.957V112.922V112.886V112.851V112.816V112.781V112.746V112.711V112.675V112.641V112.606V112.571V112.536V112.501V112.467V112.432V112.398V112.363V112.329V112.295V112.26V112.226V112.192V112.158V112.124V112.09V112.057V112.023V111.989V111.956V111.922V111.889V111.855V111.822V111.789V111.756V111.723V111.69V111.657V111.624V111.591V111.558V111.526V111.493V111.461V111.429V111.396V111.364V111.332V111.3V111.268V111.236V111.204V111.173V111.141V111.11V111.078V111.047V111.016V110.984V110.953V110.922V110.891V110.861V110.83V110.799V110.769V110.738V110.708V110.678V110.647V110.617V110.587V110.557V110.528V110.498V110.468V110.439V110.409V110.38V110.351V110.322V110.293V110.264V110.235V110.206V110.177V110.149V110.121V110.092V110.064V110.036V110.008V109.98V109.952V109.924V109.897V109.869V109.842V109.815V109.787V109.76V109.733V109.707V109.68V109.653V109.627V109.6V109.574V109.548V109.522V109.496V109.47V109.444V109.418V109.393V109.368V109.342V109.317V109.292V109.267V109.242V109.218V109.193V109.169V109.144V109.12V109.096V109.072V109.048V109.024V109.001V108.977V108.954V108.931V108.907V108.884V108.862V108.839V108.816V108.794V108.771V108.749V108.727V108.705V108.683V108.661V108.64V108.618V108.597V108.576V108.555V108.534V108.513V108.492V108.472V108.451V108.431V108.411V108.391V108.371V108.351V108.332V108.312V108.293V108.274V108.255V108.236V108.217V108.2C250.835 107.565 250.788 106.857 250.74 106.159C250.722 105.886 250.704 105.615 250.684 105.351C250.61 104.327 250.518 103.318 250.355 102.361C250.015 100.371 249.431 99.0146 248.521 98.2702C248.538 98.284 248.482 98.2402 248.282 98.1063C248.107 97.989 247.871 97.8359 247.577 97.6478C246.989 97.2722 246.203 96.779 245.268 96.1943L244.429 95.6706C242.701 94.5911 240.606 93.2822 238.446 91.906C235.924 90.2996 233.297 88.5903 231.042 87.0328C228.828 85.5032 226.846 84.0346 225.706 82.9247C223.858 81.125 216.335 72.7743 208.445 64.0163L208.443 64.0145L208.358 63.9192L208.127 63.6632C207.328 62.7765 206.526 61.8865 205.727 60.9995C201.297 56.0836 196.915 51.23 193.478 47.4751C191.759 45.5968 190.282 44.0004 189.156 42.8112C188.593 42.2159 188.125 41.7304 187.762 41.3657C187.581 41.1833 187.432 41.0375 187.315 40.9266C187.256 40.8714 187.209 40.8283 187.173 40.7959C187.164 40.7881 187.156 40.7811 187.149 40.7751C187.142 40.7687 187.136 40.7633 187.131 40.7587C187.12 40.7497 187.115 40.7457 187.115 40.7458C184.68 38.7979 181.627 37.1205 178.674 36.0377C175.78 34.9767 172.338 34.3756 168.527 34.2753C164.896 34.1798 68.9999 34.2604 53.5046 34.2742ZM96.4258 130.244H207.77C207.754 129.931 207.746 129.616 207.746 129.299C207.746 128.189 207.842 127.102 208.026 126.044H96.1698C96.3533 127.102 96.449 128.189 96.449 129.299C96.449 129.616 96.4412 129.931 96.4258 130.244Z" fill="#0E263E"/>
<ellipse cx="226.541" cy="129.194" rx="16.2747" ry="16.2747" fill="#0E263E"/>
<ellipse cx="77.4446" cy="129.194" rx="16.2747" ry="16.2747" fill="#0E263E"/>
<path d="M215.306 83.3101C220.241 83.3101 193.467 55.3807 191.472 54.7507C189.477 54.1207 176.667 54.7507 176.667 54.7507L177.717 83.3101H215.306Z" fill="#0E263E" stroke="#0E263E" stroke-width="0.209996"/>
<rect x="40" y="145" width="224" height="52" rx="10" fill="#0E263E"/>
<path d="M59.208 182V159.6H66.696C69.2987 159.6 71.4427 160.069 73.128 161.008C74.8347 161.925 76.0933 163.227 76.904 164.912C77.736 166.576 78.152 168.539 78.152 170.8C78.152 173.061 77.736 175.035 76.904 176.72C76.0933 178.384 74.8453 179.685 73.16 180.624C71.4747 181.541 69.32 182 66.696 182H59.208ZM63.528 178.288H66.472C68.3067 178.288 69.7467 177.989 70.792 177.392C71.8587 176.795 72.616 175.941 73.064 174.832C73.512 173.701 73.736 172.357 73.736 170.8C73.736 169.221 73.512 167.877 73.064 166.768C72.616 165.637 71.8587 164.773 70.792 164.176C69.7467 163.579 68.3067 163.28 66.472 163.28H63.528V178.288ZM81.833 182V159.6H90.185C91.9983 159.6 93.4917 159.909 94.665 160.528C95.8383 161.147 96.713 161.979 97.289 163.024C97.865 164.048 98.153 165.189 98.153 166.448C98.153 167.643 97.8757 168.763 97.321 169.808C96.7663 170.832 95.8917 171.664 94.697 172.304C93.5237 172.923 92.009 173.232 90.153 173.232H86.153V182H81.833ZM93.449 182L88.841 172.144H93.513L98.377 182H93.449ZM86.153 170.096H89.929C91.2303 170.096 92.1903 169.776 92.809 169.136C93.4277 168.496 93.737 167.653 93.737 166.608C93.737 165.563 93.4277 164.741 92.809 164.144C92.2117 163.525 91.2517 163.216 89.929 163.216H86.153V170.096ZM102.021 182V159.6H116.741V163.088H106.341V168.944H115.781V172.304H106.341V178.512H116.741V182H102.021ZM128.208 182V159.6H142.8V163.088H132.528V169.072H140.752V172.464H132.528V182H128.208ZM145.989 182V159.6H154.341C156.155 159.6 157.648 159.909 158.821 160.528C159.995 161.147 160.869 161.979 161.445 163.024C162.021 164.048 162.309 165.189 162.309 166.448C162.309 167.643 162.032 168.763 161.477 169.808C160.923 170.832 160.048 171.664 158.853 172.304C157.68 172.923 156.165 173.232 154.309 173.232H150.309V182H145.989ZM157.605 182L152.997 172.144H157.669L162.533 182H157.605ZM150.309 170.096H154.085C155.387 170.096 156.347 169.776 156.965 169.136C157.584 168.496 157.893 167.653 157.893 166.608C157.893 165.563 157.584 164.741 156.965 164.144C156.368 163.525 155.408 163.216 154.085 163.216H150.309V170.096ZM176.513 182.384C174.337 182.384 172.417 181.893 170.753 180.912C169.089 179.931 167.787 178.576 166.849 176.848C165.91 175.099 165.441 173.083 165.441 170.8C165.441 168.517 165.91 166.512 166.849 164.784C167.787 163.035 169.089 161.669 170.753 160.688C172.417 159.707 174.337 159.216 176.513 159.216C178.71 159.216 180.641 159.707 182.305 160.688C183.969 161.669 185.259 163.035 186.177 164.784C187.115 166.512 187.585 168.517 187.585 170.8C187.585 173.083 187.115 175.099 186.177 176.848C185.259 178.576 183.969 179.931 182.305 180.912C180.641 181.893 178.71 182.384 176.513 182.384ZM176.513 178.512C177.878 178.512 179.051 178.203 180.033 177.584C181.035 176.944 181.814 176.048 182.369 174.896C182.923 173.744 183.201 172.379 183.201 170.8C183.201 169.2 182.923 167.835 182.369 166.704C181.814 165.552 181.035 164.667 180.033 164.048C179.051 163.429 177.878 163.12 176.513 163.12C175.169 163.12 173.995 163.429 172.993 164.048C171.99 164.667 171.211 165.552 170.657 166.704C170.102 167.835 169.825 169.2 169.825 170.8C169.825 172.379 170.102 173.744 170.657 174.896C171.211 176.048 171.99 176.944 172.993 177.584C173.995 178.203 175.169 178.512 176.513 178.512ZM195.737 182V163.088H189.177V159.6H206.553V163.088H200.025V182H195.737ZM205.735 182L213.927 159.6H218.823L226.983 182H222.407L216.359 164.528L210.279 182H205.735ZM209.351 176.912L210.503 173.552H221.895L223.015 176.912H209.351ZM237.639 182.384C236.017 182.384 234.567 182.107 233.287 181.552C232.028 180.997 231.025 180.187 230.279 179.12C229.553 178.053 229.18 176.763 229.159 175.248H233.735C233.756 175.909 233.927 176.507 234.247 177.04C234.567 177.573 235.004 178 235.559 178.32C236.135 178.619 236.817 178.768 237.607 178.768C238.289 178.768 238.876 178.661 239.367 178.448C239.879 178.213 240.273 177.893 240.551 177.488C240.828 177.083 240.967 176.603 240.967 176.048C240.967 175.408 240.807 174.875 240.487 174.448C240.188 174.021 239.761 173.659 239.207 173.36C238.673 173.061 238.044 172.795 237.319 172.56C236.615 172.304 235.868 172.037 235.079 171.76C233.308 171.184 231.953 170.416 231.015 169.456C230.097 168.496 229.639 167.227 229.639 165.648C229.639 164.304 229.959 163.152 230.599 162.192C231.26 161.232 232.167 160.496 233.319 159.984C234.471 159.472 235.783 159.216 237.255 159.216C238.769 159.216 240.092 159.483 241.223 160.016C242.375 160.528 243.281 161.275 243.943 162.256C244.625 163.237 244.977 164.389 244.999 165.712H240.391C240.369 165.221 240.22 164.763 239.943 164.336C239.687 163.888 239.324 163.536 238.855 163.28C238.385 163.003 237.831 162.864 237.191 162.864C236.636 162.843 236.124 162.928 235.655 163.12C235.207 163.312 234.844 163.6 234.567 163.984C234.311 164.347 234.183 164.805 234.183 165.36C234.183 165.893 234.311 166.341 234.567 166.704C234.844 167.067 235.217 167.387 235.687 167.664C236.156 167.92 236.711 168.165 237.351 168.4C237.991 168.613 238.684 168.837 239.431 169.072C240.54 169.456 241.564 169.915 242.503 170.448C243.441 170.96 244.188 171.632 244.743 172.464C245.297 173.296 245.575 174.395 245.575 175.76C245.575 176.933 245.265 178.021 244.647 179.024C244.028 180.027 243.132 180.837 241.959 181.456C240.807 182.075 239.367 182.384 237.639 182.384Z" fill="white"/>
<defs>
<linearGradient id="paint0_linear_113_184" x1="70.8292" y1="0.000121508" x2="89.7104" y2="83.9984" gradientUnits="userSpaceOnUse">
<stop stop-color="#0092D5"/>
<stop offset="1" stop-color="#005CB8"/>
</linearGradient>
</defs>
</svg>
