<svg width="284" height="147" viewBox="0 0 284 147" fill="none" xmlns="http://www.w3.org/2000/svg">
<path d="M3 114.188H51.299" stroke="#0E263E" stroke-width="4.19992" stroke-linecap="round"/>
<path d="M27.1494 100.748L51.2989 100.748" stroke="#0E263E" stroke-width="4.19992" stroke-linecap="round"/>
<ellipse cx="70.8292" cy="42.9993" rx="41.9991" ry="41.9992" fill="url(#paint0_linear_240_4)"/>
<path fill-rule="evenodd" clip-rule="evenodd" d="M53.5046 35.2742V127.044H53.5255H53.5549H53.5845H53.6142H53.644H53.6741H53.7043H53.7346H53.7651H53.7958H53.8266H53.8576H53.8888H53.9201H53.9515H53.9831H54.0149H54.0468H54.0788H54.111H54.1434H54.1759H54.2086H54.2414H54.2743H54.3074H54.3407H54.374H54.4076H54.4412H54.475H54.509H54.5431H54.5773H54.6117H54.6462H54.6808H54.7156H54.7505H54.7855H54.8207H54.856H54.8915H54.927H54.9628H54.9986H55.0345H55.0706H55.1068H55.1432H55.1796H55.2162H55.2529H55.2898H55.3267H55.3638H55.401H55.4383H55.4758H55.5133H55.551H55.5888H55.6267H55.6647H55.7028H55.7411H55.7794H55.8179H55.8565H55.8952H55.934H55.9729H56.0119H56.051H56.0902H56.1295H56.169H56.2085H56.2481H56.2879H56.3277H56.3677H56.4077H56.4478H56.4881H56.5284H56.5688H56.6093H56.65H56.6907H56.7315H56.7724H56.8134H56.8544H56.8956H56.9368H56.9782H57.0196H57.0611H57.1027H57.1444H57.1862H57.228H57.27H57.312H57.3541H57.3962H57.4385H57.4808H57.5232H57.5657H57.6083H57.6509H57.6936H57.7364H57.7792H57.8222H57.8652H57.9082H57.9514H57.9946H58.0378H58.0812H58.1246H58.168H58.2116H58.2552H58.2988H58.3426H58.3863H58.4302H58.4741H58.518H58.562H58.6061H58.6502H58.6944H58.7387H58.783H58.8273H58.8717H58.9162H58.9285C58.745 128.102 58.6493 129.189 58.6493 130.299C58.6493 130.616 58.6571 130.931 58.6725 131.244H58.6502H58.6061H58.562H58.518H58.4741H58.4302H58.3863H58.3426H58.2988H58.2552H58.2116H58.168H58.1246H58.0812H58.0378H57.9946H57.9514H57.9082H57.8652H57.8222H57.7792H57.7364H57.6936H57.6509H57.6083H57.5657H57.5232H57.4808H57.4385H57.3962H57.3541H57.312H57.27H57.228H57.1862H57.1444H57.1027H57.0611H57.0196H56.9782H56.9368H56.8956H56.8544H56.8134H56.7724H56.7315H56.6907H56.65H56.6093H56.5688H56.5284H56.4881H56.4478H56.4077H56.3677H56.3277H56.2879H56.2481H56.2085H56.169H56.1295H56.0902H56.051H56.0119H55.9729H55.934H55.8952H55.8565H55.8179H55.7794H55.7411H55.7028H55.6647H55.6267H55.5888H55.551H55.5133H55.4758H55.4383H55.401H55.3638H55.3267H55.2898H55.2529H55.2162H55.1796H55.1432H55.1068H55.0706H55.0345H54.9986H54.9628H54.927H54.8915H54.856H54.8207H54.7855H54.7505H54.7156H54.6808H54.6462H54.6117H54.5773H54.5431H54.509H54.475H54.4412H54.4076H54.374H54.3407H54.3074H54.2743H54.2414H54.2086H54.1759H54.1434H54.111H54.0788H54.0468H54.0149H53.9831H53.9515H53.9201H53.8888H53.8576H53.8266H53.7958H53.7651H53.7346H53.7043H53.6741H53.644H53.6142H53.5845H53.5549H53.5255H53.4963H53.4673H53.4384H53.4097H53.3811H53.3527H53.3245H53.2965H53.2686H53.2409H53.2134H53.186H53.1589H53.1319H53.105H53.0784H53.0519H53.0256H52.9995H52.9736H52.9478H52.9223H52.8969H52.8717H52.8467H52.8218H52.7972H52.7727H52.7484H52.7244H52.7005H52.6768H52.6532H52.6299H52.6068H52.5839H52.5611H52.5386H52.5162H52.4941H52.4721H52.4503C50.6995 131.244 49.3047 129.823 49.3047 128.094V34.2251C49.3047 32.6346 50.5166 31.0769 52.3979 31.0752C63.5177 31.0652 164.83 30.9766 168.637 31.0769C172.806 31.1865 176.714 31.8455 180.12 33.0944C183.467 34.3215 186.923 36.2141 189.739 38.4661C190.208 38.8417 191.115 39.7704 192.207 40.9242C193.356 42.1389 194.852 43.7556 196.576 45.6392C200.026 49.408 204.418 54.2733 208.847 59.1878C209.718 60.154 210.589 61.121 211.454 62.081L211.456 62.0829L211.459 62.0867C219.442 70.9472 226.895 79.2206 228.636 80.9155C229.491 81.7481 231.197 83.0356 233.429 84.5772C235.62 86.0909 238.197 87.7678 240.702 89.3638C242.844 90.7283 244.921 92.0255 246.649 93.1049L246.651 93.1065L247.494 93.6329C248.427 94.2164 249.231 94.7206 249.839 95.1095C250.388 95.4603 250.917 95.8042 251.18 96.0194C253.305 97.758 254.111 100.403 254.495 102.654C254.693 103.817 254.797 104.989 254.873 106.046C254.896 106.365 254.917 106.668 254.936 106.957L254.937 106.962L254.937 106.963C254.985 107.668 255.027 108.29 255.089 108.865L255.101 108.977V109.09V109.107V109.125V109.143V109.162V109.18V109.198V109.217V109.236V109.255V109.274V109.293V109.312V109.332V109.351V109.371V109.391V109.411V109.431V109.451V109.472V109.492V109.513V109.534V109.555V109.576V109.597V109.618V109.64V109.661V109.683V109.705V109.727V109.749V109.771V109.794V109.816V109.839V109.862V109.884V109.907V109.931V109.954V109.977V110.001V110.024V110.048V110.072V110.096V110.12V110.144V110.169V110.193V110.218V110.242V110.267V110.292V110.317V110.342V110.368V110.393V110.418V110.444V110.47V110.496V110.522V110.548V110.574V110.6V110.627V110.653V110.68V110.707V110.733V110.76V110.787V110.815V110.842V110.869V110.897V110.924V110.952V110.98V111.008V111.036V111.064V111.092V111.121V111.149V111.177V111.206V111.235V111.264V111.293V111.322V111.351V111.38V111.409V111.439V111.468V111.498V111.528V111.557V111.587V111.617V111.647V111.678V111.708V111.738V111.769V111.799V111.83V111.861V111.891V111.922V111.953V111.984V112.016V112.047V112.078V112.11V112.141V112.173V112.204V112.236V112.268V112.3V112.332V112.364V112.396V112.429V112.461V112.493V112.526V112.558V112.591V112.624V112.657V112.69V112.723V112.756V112.789V112.822V112.855V112.889V112.922V112.956V112.989V113.023V113.057V113.09V113.124V113.158V113.192V113.226V113.26V113.295V113.329V113.363V113.398V113.432V113.467V113.501V113.536V113.571V113.606V113.641V113.675V113.711V113.746V113.781V113.816V113.851V113.886V113.922V113.957V113.993V114.028V114.064V114.1V114.135V114.171V114.207V114.243V114.279V114.315V114.351V114.387V114.423V114.46V114.496V114.532V114.569V114.605V114.641V114.678V114.715V114.751V114.788V114.825V114.861V114.898V114.935V114.972V115.009V115.046V115.083V115.12V115.157V115.195V115.232V115.269V115.306V115.344V115.381V115.419V115.456V115.494V115.531V115.569V115.606V115.644V115.682V115.719V115.757V115.795V115.833V115.871V115.909V115.947V115.985V116.023V116.061V116.099V116.137V116.175V116.213V116.252V116.29V116.328V116.366V116.405V116.443V116.481V116.52V116.558V116.597V116.635V116.674V116.712V116.751V116.789V116.828V116.867V116.905V116.944V116.983V117.021V117.06V117.099V117.138V117.176V117.215V117.254V117.293V117.332V117.371V117.409V117.448V117.487V117.526V117.565V117.604V117.643V117.682V117.721V117.76V117.799V117.838V117.877V117.916V117.955V117.994V118.033V118.072V118.112V118.151V118.19V118.229V118.268V118.307V118.346V118.385V118.424V118.464V118.503V118.542V118.581V118.62V118.659V118.698V118.737V118.777V118.816V118.855V118.894V118.933V118.972V119.011V119.05V119.09V119.129V119.168V119.207V119.246V119.285V119.324V119.363V119.402V119.441V119.48V119.519V119.558V119.597V119.636V119.675V119.714V119.753V119.792V119.831V119.87V119.909V119.947V119.986V120.025V120.064V120.103V120.142V120.18V120.219V120.258V120.296V120.335V120.374V120.412V120.451V120.49V120.528V120.567V120.605V120.644V120.682V120.721V120.759V120.798V120.836V120.874V120.913V120.951V120.989V121.027V121.066V121.104V121.142V121.18V121.218V121.256V121.294V121.332V121.37V121.408V121.446V121.484V121.521V121.559V121.597V121.635V121.672V121.71V121.747V121.785V121.822V121.86V121.897V121.935V121.972V122.009V122.047V122.084V122.121V122.158V122.195V122.232V122.269V122.306V122.343V122.38V122.417V122.454V122.49V122.527V122.563V122.6V122.637V122.673V122.709V122.746V122.782V122.818V122.855V122.891V122.927V122.963V122.999V123.035V123.071V123.106V123.142V123.178V123.214V123.249V123.285V123.32V123.356V123.391V123.426V123.461V123.497V123.532V123.567V123.602V123.637V123.672V123.706V123.741V123.776V123.81V123.845V123.879V123.914V123.948V123.982V124.016V124.051V124.085V124.119V124.153V124.186V124.22V124.254V124.287V124.321V124.354V124.388V124.421V124.454V124.488V124.521V124.554V124.587V124.62V124.652V124.685V124.718V124.75V124.783V124.815V124.847V124.88V124.912V124.944V124.976V125.008V125.04V125.071V125.103V125.135V125.166V125.197V125.229V125.26V125.291V125.322V125.353V125.384V125.415V125.445V125.476V125.506V125.537V125.567V125.597V125.628V125.658V125.688V125.717V125.747V125.777V125.806V125.836V125.865V125.895V125.924V125.953V125.982V126.011V126.039V126.068V126.097V126.125V126.154V126.182V126.21C255.101 128.999 252.839 131.244 250.061 131.244H245.522C245.538 130.931 245.546 130.616 245.546 130.299C245.546 129.189 245.45 128.102 245.266 127.044H250.061C250.53 127.044 250.901 126.669 250.901 126.21V126.182V126.154V126.125V126.097V126.068V126.039V126.011V125.982V125.953V125.924V125.895V125.865V125.836V125.806V125.777V125.747V125.717V125.688V125.658V125.628V125.597V125.567V125.537V125.506V125.476V125.445V125.415V125.384V125.353V125.322V125.291V125.26V125.229V125.197V125.166V125.135V125.103V125.071V125.04V125.008V124.976V124.944V124.912V124.88V124.847V124.815V124.783V124.75V124.718V124.685V124.652V124.62V124.587V124.554V124.521V124.488V124.454V124.421V124.388V124.354V124.321V124.287V124.254V124.22V124.186V124.153V124.119V124.085V124.051V124.016V123.982V123.948V123.914V123.879V123.845V123.81V123.776V123.741V123.706V123.672V123.637V123.602V123.567V123.532V123.497V123.461V123.426V123.391V123.356V123.32V123.285V123.249V123.214V123.178V123.142V123.106V123.071V123.035V122.999V122.963V122.927V122.891V122.855V122.818V122.782V122.746V122.709V122.673V122.637V122.6V122.563V122.527V122.49V122.454V122.417V122.38V122.343V122.306V122.269V122.232V122.195V122.158V122.121V122.084V122.047V122.009V121.972V121.935V121.897V121.86V121.822V121.785V121.747V121.71V121.672V121.635V121.597V121.559V121.521V121.484V121.446V121.408V121.37V121.332V121.294V121.256V121.218V121.18V121.142V121.104V121.066V121.027V120.989V120.951V120.913V120.874V120.836V120.798V120.759V120.721V120.682V120.644V120.605V120.567V120.528V120.49V120.451V120.412V120.374V120.335V120.296V120.258V120.219V120.18V120.142V120.103V120.064V120.025V119.986V119.947V119.909V119.87V119.831V119.792V119.753V119.714V119.675V119.636V119.597V119.558V119.519V119.48V119.441V119.402V119.363V119.324V119.285V119.246V119.207V119.168V119.129V119.09V119.05V119.011V118.972V118.933V118.894V118.855V118.816V118.777V118.737V118.698V118.659V118.62V118.581V118.542V118.503V118.464V118.424V118.385V118.346V118.307V118.268V118.229V118.19V118.151V118.112V118.072V118.033V117.994V117.955V117.916V117.877V117.838V117.799V117.76V117.721V117.682V117.643V117.604V117.565V117.526V117.487V117.448V117.409V117.371V117.332V117.293V117.254V117.215V117.176V117.138V117.099V117.06V117.021V116.983V116.944V116.905V116.867V116.828V116.789V116.751V116.712V116.674V116.635V116.597V116.558V116.52V116.481V116.443V116.405V116.366V116.328V116.29V116.252V116.213V116.175V116.137V116.099V116.061V116.023V115.985V115.947V115.909V115.871V115.833V115.795V115.757V115.719V115.682V115.644V115.606V115.569V115.531V115.494V115.456V115.419V115.381V115.344V115.306V115.269V115.232V115.195V115.157V115.12V115.083V115.046V115.009V114.972V114.935V114.898V114.861V114.825V114.788V114.751V114.715V114.678V114.641V114.605V114.569V114.532V114.496V114.46V114.423V114.387V114.351V114.315V114.279V114.243V114.207V114.171V114.135V114.1V114.064V114.028V113.993V113.957V113.922V113.886V113.851V113.816V113.781V113.746V113.711V113.675V113.641V113.606V113.571V113.536V113.501V113.467V113.432V113.398V113.363V113.329V113.295V113.26V113.226V113.192V113.158V113.124V113.09V113.057V113.023V112.989V112.956V112.922V112.889V112.855V112.822V112.789V112.756V112.723V112.69V112.657V112.624V112.591V112.558V112.526V112.493V112.461V112.429V112.396V112.364V112.332V112.3V112.268V112.236V112.204V112.173V112.141V112.11V112.078V112.047V112.016V111.984V111.953V111.922V111.891V111.861V111.83V111.799V111.769V111.738V111.708V111.678V111.647V111.617V111.587V111.557V111.528V111.498V111.468V111.439V111.409V111.38V111.351V111.322V111.293V111.264V111.235V111.206V111.177V111.149V111.121V111.092V111.064V111.036V111.008V110.98V110.952V110.924V110.897V110.869V110.842V110.815V110.787V110.76V110.733V110.707V110.68V110.653V110.627V110.6V110.574V110.548V110.522V110.496V110.47V110.444V110.418V110.393V110.368V110.342V110.317V110.292V110.267V110.242V110.218V110.193V110.169V110.144V110.12V110.096V110.072V110.048V110.024V110.001V109.977V109.954V109.931V109.907V109.884V109.862V109.839V109.816V109.794V109.771V109.749V109.727V109.705V109.683V109.661V109.64V109.618V109.597V109.576V109.555V109.534V109.513V109.492V109.472V109.451V109.431V109.411V109.391V109.371V109.351V109.332V109.312V109.293V109.274V109.255V109.236V109.217V109.2C250.835 108.565 250.788 107.857 250.74 107.159C250.722 106.886 250.704 106.615 250.684 106.351C250.61 105.327 250.518 104.318 250.355 103.361C250.015 101.371 249.431 100.015 248.521 99.2702C248.538 99.284 248.482 99.2402 248.282 99.1063C248.107 98.989 247.871 98.8359 247.577 98.6478C246.989 98.2722 246.203 97.779 245.268 97.1943L244.429 96.6706C242.701 95.5911 240.606 94.2822 238.446 92.906C235.924 91.2996 233.297 89.5903 231.042 88.0328C228.828 86.5032 226.846 85.0346 225.706 83.9247C223.858 82.125 216.335 73.7743 208.445 65.0163L208.443 65.0145L208.358 64.9192L208.127 64.6632C207.328 63.7765 206.526 62.8865 205.727 61.9995C201.297 57.0836 196.915 52.23 193.478 48.4751C191.759 46.5968 190.282 45.0004 189.156 43.8112C188.593 43.2159 188.125 42.7304 187.762 42.3657C187.581 42.1833 187.432 42.0375 187.315 41.9266C187.256 41.8714 187.209 41.8283 187.173 41.7959C187.164 41.7881 187.156 41.7811 187.149 41.7751C187.142 41.7687 187.136 41.7633 187.131 41.7587C187.12 41.7497 187.115 41.7457 187.115 41.7458C184.68 39.7979 181.627 38.1205 178.674 37.0377C175.78 35.9767 172.338 35.3756 168.527 35.2753C164.896 35.1798 68.9999 35.2604 53.5046 35.2742ZM96.4253 131.244H207.77C207.754 130.931 207.746 130.616 207.746 130.299C207.746 129.189 207.842 128.102 208.026 127.044H96.1693C96.3528 128.102 96.4485 129.189 96.4485 130.299C96.4485 130.616 96.4407 130.931 96.4253 131.244Z" fill="#0E263E"/>
<ellipse cx="226.541" cy="130.194" rx="16.2747" ry="16.2747" fill="#0E263E"/>
<ellipse cx="77.4446" cy="130.194" rx="16.2747" ry="16.2747" fill="#0E263E"/>
<path d="M215.306 84.31C220.241 84.31 193.467 56.3806 191.472 55.7506C189.477 55.1206 176.667 55.7506 176.667 55.7506L177.717 84.31H215.306Z" fill="#0E263E" stroke="#0E263E" stroke-width="0.209996"/>
<defs>
<linearGradient id="paint0_linear_240_4" x1="70.8292" y1="1.00012" x2="89.7104" y2="84.9984" gradientUnits="userSpaceOnUse">
<stop stop-color="#0092D5"/>
<stop offset="1" stop-color="#005CB8"/>
</linearGradient>
</defs>
</svg>
