<svg width="165" height="164" viewBox="0 0 165 164" fill="none" xmlns="http://www.w3.org/2000/svg">
<circle cx="82.5" cy="82" r="82" fill="#E0F2FE"/>
<path d="M53.5611 86.2544V97.0304C53.5611 99.8299 55.095 102.438 57.5493 103.78L76.7237 114.249C79.0247 115.515 81.7858 115.515 84.0867 114.249L103.261 103.78C105.715 102.438 107.249 99.8299 107.249 97.0304V86.2544L84.0867 98.9095C81.7858 100.175 79.0247 100.175 76.7237 98.9095L53.5611 86.2544ZM76.7237 49.2094L44.3957 66.8499C41.7496 68.3071 41.7496 72.142 44.3957 73.5993L76.7237 91.2397C79.0247 92.5052 81.7858 92.5052 84.0867 91.2397L114.919 74.4046V97.0688C114.919 99.1779 116.645 100.904 118.754 100.904C120.863 100.904 122.589 99.1779 122.589 97.0688V72.4872C122.589 71.0683 121.822 69.8027 120.595 69.1125L84.0867 49.2094C82.9537 48.6052 81.6893 48.2891 80.4052 48.2891C79.1211 48.2891 77.8568 48.6052 76.7237 49.2094Z" fill="#2071C2"/>
</svg>
