<svg width="165" height="164" viewBox="0 0 165 164" fill="none" xmlns="http://www.w3.org/2000/svg">
<circle cx="82.5" cy="82" r="82" fill="#E0F2FE"/>
<path d="M100.2 81.8C102.269 81.8 104.253 82.6218 105.715 84.0846C107.178 85.5474 108 87.5313 108 89.6V95.6667C108 105.916 98.328 116.467 82 116.467C65.672 116.467 56 105.916 56 95.6667V89.6C56 87.5313 56.8218 85.5474 58.2846 84.0846C59.7474 82.6218 61.7313 81.8 63.8 81.8H100.2ZM82 48C85.7926 48 89.4299 49.5066 92.1116 52.1884C94.7934 54.8701 96.3 58.5074 96.3 62.3C96.3 66.0926 94.7934 69.7299 92.1116 72.4116C89.4299 75.0934 85.7926 76.6 82 76.6C78.2074 76.6 74.5701 75.0934 71.8884 72.4116C69.2066 69.7299 67.7 66.0926 67.7 62.3C67.7 58.5074 69.2066 54.8701 71.8884 52.1884C74.5701 49.5066 78.2074 48 82 48Z" fill="#2071C2"/>
</svg>
